<svg width="23" height="17" viewBox="0 0 23 17" xmlns="http://www.w3.org/2000/svg">
    <path fill="currentColor" d="M19.5106 0H2.78723C2.04801 0 1.33907 0.293652 0.816359 0.816359C0.293652 1.33907 0 2.04801 0 2.78723V13.2393C0 13.9786 0.293652 14.6875 0.816359 15.2102C1.33907 15.7329 2.04801 16.0266 2.78723 16.0266H19.5106C20.2498 16.0266 20.9588 15.7329 21.4815 15.2102C22.0042 14.6875 22.2979 13.9786 22.2979 13.2393V2.78723C22.2979 2.04801 22.0042 1.33907 21.4815 0.816359C20.9588 0.293652 20.2498 0 19.5106 0ZM20.9042 13.2393C20.9042 13.609 20.7574 13.9634 20.4961 14.2248C20.2347 14.4861 19.8802 14.633 19.5106 14.633H2.78723C2.41762 14.633 2.06315 14.4861 1.8018 14.2248C1.54044 13.9634 1.39362 13.609 1.39362 13.2393V2.78723C1.39362 2.41762 1.54044 2.06315 1.8018 1.8018C2.06315 1.54044 2.41762 1.39362 2.78723 1.39362H19.5106C19.8802 1.39362 20.2347 1.54044 20.4961 1.8018C20.7574 2.06315 20.9042 2.41762 20.9042 2.78723V13.2393Z"/>
    <path fill="currentColor" d="M18.3748 3.64429L11.1489 9.55321L3.923 3.64429C3.77905 3.54903 3.60485 3.51059 3.43418 3.53643C3.2635 3.56227 3.10849 3.65054 2.99918 3.78415C2.88987 3.91775 2.83404 4.08717 2.84251 4.25959C2.85098 4.432 2.92315 4.59512 3.04503 4.71737L10.7099 10.9886C10.8341 11.0893 10.989 11.1443 11.1489 11.1443C11.3088 11.1443 11.4637 11.0893 11.5879 10.9886L19.2528 4.71737C19.334 4.66359 19.4031 4.59338 19.4556 4.51126C19.508 4.42913 19.5426 4.33691 19.5572 4.24056C19.5718 4.14422 19.566 4.0459 19.5402 3.95193C19.5145 3.85796 19.4693 3.77044 19.4076 3.69502C19.3458 3.61961 19.269 3.55797 19.182 3.51409C19.095 3.47022 18.9998 3.44507 18.9024 3.44029C18.8051 3.43551 18.7079 3.4512 18.617 3.48634C18.5261 3.52148 18.4436 3.57528 18.3748 3.64429V3.64429Z"/>
</svg>