<svg width="21" height="21" viewBox="0 0 21 21" fill="none" xmlns="http://www.w3.org/2000/svg">
    <g clip-path="url(#clip0_344_441)">
    <path fill="currentColor" fill-rule="evenodd" clip-rule="evenodd" d="M10.5087 0C4.69766 0 0 4.73229 0 10.5868C0 15.2666 3.00995 19.2279 7.18555 20.63C7.7076 20.7354 7.89883 20.4022 7.89883 20.1219C7.89883 19.8765 7.88162 19.0352 7.88162 18.1586C4.95836 18.7898 4.34962 16.8966 4.34962 16.8966C3.87983 15.6697 3.18375 15.3543 3.18375 15.3543C2.22697 14.7058 3.25345 14.7058 3.25345 14.7058C4.31477 14.7759 4.87167 15.7925 4.87167 15.7925C5.81103 17.4049 7.32472 16.9493 7.93368 16.6688C8.02058 15.9852 8.29914 15.512 8.59491 15.2491C6.2634 15.0037 3.81035 14.0923 3.81035 10.0258C3.81035 8.86895 4.22765 7.92249 4.88888 7.18641C4.78456 6.92355 4.4191 5.83663 4.99342 4.38188C4.99342 4.38188 5.88073 4.10139 7.88141 5.46859C8.73797 5.23685 9.62133 5.11896 10.5087 5.11797C11.396 5.11797 12.3005 5.24079 13.1358 5.46859C15.1366 4.10139 16.024 4.38188 16.024 4.38188C16.5983 5.83663 16.2326 6.92355 16.1283 7.18641C16.8069 7.92249 17.207 8.86895 17.207 10.0258C17.207 14.0923 14.754 14.9861 12.405 15.2491C12.7879 15.5821 13.1183 16.213 13.1183 17.2122C13.1183 18.6319 13.1011 19.7713 13.1011 20.1217C13.1011 20.4022 13.2926 20.7354 13.8144 20.6302C17.99 19.2277 21 15.2666 21 10.5868C21.0172 4.73229 16.3023 0 10.5087 0Z" />
    </g>
    <defs>
    <clipPath id="clip0_344_441">
    <rect width="21" height="21" fill="currentColor"/>
    </clipPath>
    </defs>
</svg>  