<svg width="20" height="20" viewBox="0 0 20 20" fill="none" xmlns="http://www.w3.org/2000/svg">
    <path d="M14.335 0C17.724 0 20 2.37802 20 5.91602V14.084C20 17.622 17.724 20 14.335 20H5.66602C2.27702 20 0 17.622 0 14.084V5.91602C0 2.37802 2.27702 0 5.66602 0H14.335ZM5.66602 1.5C3.13602 1.5 1.5 3.23302 1.5 5.91602V14.084C1.5 16.767 3.13602 18.5 5.66602 18.5H14.335C16.865 18.5 18.5 16.767 18.5 14.084V5.91602C18.5 3.23302 16.865 1.5 14.335 1.5H5.66602ZM10 5.16406C10.414 5.16406 10.75 5.50006 10.75 5.91406V12.2695L13.2168 9.79297C13.5098 9.49797 13.9843 9.50002 14.2773 9.79102C14.57 10.0829 14.5719 10.5576 14.2793 10.8516L10.5312 14.6162C10.4768 14.6714 10.4122 14.7128 10.3447 14.748C10.3262 14.7577 10.3085 14.7692 10.2891 14.7773C10.2359 14.7996 10.1803 14.8147 10.123 14.8242C10.0892 14.8298 10.0548 14.8331 10.0195 14.834C10.013 14.8342 10.0065 14.8369 10 14.8369C9.99315 14.8369 9.98633 14.8342 9.97949 14.834C9.94426 14.833 9.90984 14.8299 9.87598 14.8242C9.72281 14.7985 9.57926 14.7283 9.46875 14.6162L5.7207 10.8516C5.42806 10.5576 5.42996 10.0829 5.72266 9.79102C6.01666 9.50002 6.4912 9.49797 6.7832 9.79297L9.25 12.2695V5.91406C9.25 5.50006 9.586 5.16406 10 5.16406Z" fill="currentColor"/>
</svg>   