<svg width="120" height="15" viewBox="0 0 120 15" fill="none" xmlns="http://www.w3.org/2000/svg">
    <g clip-path="url(#clip0_394_1677)">
    <path d="M0 0.906398C0 0.704579 0.158698 0.523315 0.357994 0.523315H5.08204C8.92771 0.523315 12.0777 3.69262 12.0777 7.56642C12.0777 11.4402 8.92955 14.6506 5.08204 14.6506H0.357994C0.158698 14.6506 0 14.4694 0 14.2676V0.906398ZM4.84215 12.1896C7.43299 12.1896 9.3263 10.2125 9.3263 7.56829C9.3263 4.92409 7.43299 2.96757 4.84215 2.96757H2.57055V12.1914H4.84215V12.1896Z" fill="currentColor"/>
    <path d="M16.3016 0.906398C16.3016 0.704579 16.4806 0.523315 16.6799 0.523315H18.5326C18.7319 0.523315 18.9109 0.704579 18.9109 0.906398V14.2676C18.9109 14.4694 18.7319 14.6506 18.5326 14.6506H16.6799C16.4806 14.6506 16.3016 14.4694 16.3016 14.2676V0.906398Z" fill="currentColor"/>
    <path d="M22.3211 1.04842C22.2012 0.786801 22.3617 0.523315 22.6607 0.523315H24.6942C24.8732 0.523315 24.9932 0.644781 25.0338 0.74569L28.861 9.4239H29.0012L32.8229 0.74569C32.8635 0.644781 32.9816 0.523315 33.1624 0.523315H35.196C35.4949 0.523315 35.6536 0.784933 35.5355 1.04842L29.3574 14.6301C29.2983 14.7515 29.1987 14.8525 29.0178 14.8525H28.8185C28.6395 14.8525 28.5399 14.7515 28.479 14.6301L22.3211 1.04842Z" fill="currentColor"/>
    <path d="M38.942 0.906398C38.942 0.704579 39.121 0.523315 39.3203 0.523315H41.173C41.3723 0.523315 41.5513 0.704579 41.5513 0.906398V14.2676C41.5513 14.4694 41.3723 14.6506 41.173 14.6506H39.3203C39.121 14.6506 38.942 14.4694 38.942 14.2676V0.906398Z" fill="currentColor"/>
    <path d="M45.9561 12.6735L46.6739 11.4215C46.8326 11.1393 47.1722 11.1393 47.3512 11.2795C47.4508 11.3393 49.0655 12.5315 50.3609 12.5315C51.398 12.5315 52.1749 11.8457 52.1749 10.9767C52.1749 9.94709 51.3186 9.24072 49.6431 8.55491C47.7701 7.78875 45.8971 6.57783 45.8971 4.19525C45.8971 2.39944 47.2128 0.31958 50.3812 0.31958C52.4148 0.31958 53.9685 1.36979 54.3671 1.67251C54.5664 1.79398 54.6255 2.13595 54.4871 2.33777L53.7305 3.48888C53.5718 3.73181 53.2729 3.89252 53.033 3.73181C52.8743 3.6309 51.3592 2.62181 50.2631 2.62181C49.167 2.62181 48.5101 3.38797 48.5101 4.03454C48.5101 4.98384 49.2482 5.62854 50.861 6.29566C52.7949 7.08238 55.0259 8.25405 55.0259 10.8571C55.0259 12.9351 53.2526 14.8524 50.4421 14.8524C47.9306 14.8524 46.4562 13.662 46.0576 13.279C45.8786 13.0977 45.779 12.9968 45.958 12.6735H45.9561Z" fill="currentColor"/>
    <path d="M59.1705 0.906398C59.1705 0.704579 59.3495 0.523315 59.5488 0.523315H61.4015C61.6008 0.523315 61.7798 0.704579 61.7798 0.906398V14.2676C61.7798 14.4694 61.6008 14.6506 61.4015 14.6506H59.5488C59.3495 14.6506 59.1705 14.4694 59.1705 14.2676V0.906398Z" fill="currentColor"/>
    <path d="M73.16 0.321411C77.1459 0.321411 80.3346 3.57107 80.3346 7.60745C80.3346 11.6438 77.1459 14.8524 73.16 14.8524C69.174 14.8524 66.0056 11.6438 66.0056 7.60745C66.0056 3.57107 69.174 0.321411 73.16 0.321411ZM73.16 12.2287C75.6715 12.2287 77.7438 10.1507 77.7438 7.60745C77.7438 5.06415 75.6715 2.94506 73.16 2.94506C70.6485 2.94506 68.5965 5.06415 68.5965 7.60745C68.5965 10.1507 70.6485 12.2287 73.16 12.2287Z" fill="currentColor"/>
    <path d="M84.5401 0.683938C84.5401 0.482119 84.7191 0.321411 84.9184 0.321411H85.4167L93.7077 9.24255H93.728V0.906312C93.728 0.704493 93.8867 0.52323 94.1063 0.52323H95.9406C96.1399 0.52323 96.3189 0.704493 96.3189 0.906312V14.488C96.3189 14.6898 96.1399 14.8505 95.9406 14.8505H95.4626L87.1328 5.58739H87.1125V14.2656C87.1125 14.4674 86.9538 14.6487 86.7342 14.6487H84.9203C84.721 14.6487 84.542 14.4674 84.542 14.2656V0.683938H84.5401Z" fill="currentColor"/>
    <path d="M106.151 10.1806C103.34 10.1806 101.137 7.95129 101.137 5.1034C101.137 2.25551 103.386 0 106.151 0C108.915 0 111.177 2.28915 111.177 5.1034C111.177 7.91765 108.97 10.1806 106.151 10.1806ZM106.151 2.14526C104.555 2.14526 103.255 3.47203 103.255 5.10527C103.255 6.73851 104.555 8.03725 106.151 8.03725C107.747 8.03725 109.059 6.72169 109.059 5.10527C109.059 3.48885 107.727 2.14526 106.151 2.14526Z" fill="currentColor"/>
    <path d="M106.151 0.18689C108.841 0.18689 110.993 2.37887 110.993 5.10342C110.993 7.82798 108.841 9.99379 106.151 9.99379C103.46 9.99379 101.322 7.82798 101.322 5.10342C101.322 2.37887 103.46 0.18689 106.151 0.18689ZM106.151 8.22227C107.845 8.22227 109.244 6.81888 109.244 5.10342C109.244 3.38796 107.845 1.95654 106.151 1.95654C104.457 1.95654 103.071 3.38609 103.071 5.10342C103.071 6.82075 104.457 8.22227 106.151 8.22227Z" fill="currentColor"/>
    <path d="M114.086 10.0443C113.842 10.0443 113.645 9.84434 113.645 9.59954V0.581224C113.645 0.336425 113.842 0.136475 114.086 0.136475H119.559C119.803 0.136475 120 0.336425 120 0.581224V1.6987C120 1.9435 119.803 2.14345 119.559 2.14345H115.763V4.32982H118.9C119.135 4.32982 119.339 4.53725 119.339 4.77644V5.89392C119.339 6.13124 119.135 6.34054 118.9 6.34054H115.763V9.59954C115.763 9.83686 115.558 10.0443 115.324 10.0443H114.086Z" fill="currentColor"/>
    <path d="M113.831 0.581122C113.831 0.444707 113.938 0.323242 114.088 0.323242H119.561C119.708 0.323242 119.817 0.446576 119.817 0.581122V1.6986C119.817 1.83502 119.71 1.95648 119.561 1.95648H115.58V4.51659H118.902C119.037 4.51659 119.157 4.63992 119.157 4.77634V5.89382C119.157 6.03023 119.035 6.15357 118.902 6.15357H115.58V9.59944C115.58 9.73585 115.459 9.85732 115.326 9.85732H114.088C113.94 9.85732 113.831 9.73398 113.831 9.59944V0.581122Z" fill="currentColor"/>
    <path d="M119.747 12.7762H101.469V15H119.747V12.7762Z" fill="#21BBB8"/>
    </g>
    <defs>
    <clipPath id="clip0_394_1677">
    <rect width="120" height="15" fill="currentColor"/>
    </clipPath>
    </defs>
</svg>  