<svg width="99" height="17" viewBox="0 0 99 17" fill="none" xmlns="http://www.w3.org/2000/svg">
    <g clip-path="url(#clip0_394_1638)">
    <path d="M6.02759 0V16.8107H2V0H6.02759Z" fill="currentColor"/>
    <path d="M10.9982 16.2049C9.97659 15.6748 9.15142 14.9176 8.56202 13.9332C7.97262 12.9487 7.67792 11.794 7.67792 10.4877C7.67792 9.18149 7.97262 8.04563 8.58167 7.04229C9.17107 6.05788 9.99623 5.28171 11.0375 4.75164C12.0788 4.22158 13.2379 3.95654 14.5346 3.95654C15.8313 3.95654 16.9905 4.22158 18.0318 4.75164C19.073 5.28171 19.8786 6.03895 20.4876 7.04229C21.0967 8.04563 21.3914 9.18149 21.3914 10.4877C21.3914 11.794 21.0967 12.9298 20.4876 13.9332C19.8786 14.9365 19.0534 15.6937 18.0121 16.2238C16.9708 16.7539 15.792 17.0189 14.515 17.0189C13.2379 17.0189 12.0591 16.7539 11.0375 16.2238L10.9982 16.2049ZM16.4404 12.8162C16.9905 12.2672 17.2459 11.4911 17.2459 10.4688C17.2459 9.44652 16.9905 8.67035 16.46 8.12135C15.9296 7.57236 15.2812 7.30732 14.515 7.30732C13.7488 7.30732 13.0808 7.57236 12.5503 8.12135C12.0395 8.65142 11.7644 9.44652 11.7644 10.4688C11.7644 11.4911 12.0199 12.2672 12.5307 12.8162C13.0415 13.3652 13.6898 13.6303 14.456 13.6303C15.2223 13.6303 15.8903 13.3652 16.4207 12.8162H16.4404Z" fill="currentColor"/>
    <path d="M27.9554 13.176L30.8041 4.12695H35.0871L30.4112 16.8107H25.4406L20.7646 4.12695H25.0869L27.9357 13.176H27.9554Z" fill="currentColor"/>
    <path d="M47.6434 11.3964H38.5273C38.5862 12.1915 38.8613 12.7784 39.3132 13.1949C39.765 13.6113 40.3544 13.8196 41.0224 13.8196C42.0244 13.8196 42.7317 13.4031 43.1246 12.5891H47.4076C47.1915 13.422 46.7986 14.1793 46.2092 14.8418C45.6394 15.5044 44.9125 16.0345 44.048 16.4131C43.1836 16.7917 42.2209 16.981 41.1403 16.981C39.8436 16.981 38.7041 16.716 37.7021 16.1859C36.7001 15.6559 35.9143 14.8986 35.3445 13.9142C34.7748 12.9298 34.4997 11.775 34.4997 10.4688C34.4997 9.16256 34.7748 8.00777 35.3445 7.02336C35.8946 6.03895 36.6805 5.28171 37.6825 4.75164C38.6845 4.22158 39.8436 3.95654 41.1403 3.95654C42.437 3.95654 43.5372 4.22158 44.5392 4.73271C45.5215 5.24385 46.3074 5.98216 46.8575 6.9287C47.4076 7.87525 47.7023 8.99218 47.7023 10.2606C47.7023 10.6202 47.6827 10.9989 47.6237 11.3964H47.6434ZM43.5961 9.23828C43.5961 8.5757 43.3604 8.04563 42.8889 7.64808C42.4173 7.25053 41.8279 7.06122 41.1207 7.06122C40.4134 7.06122 39.8829 7.25053 39.4114 7.62915C38.9399 8.00777 38.6648 8.53784 38.5469 9.23828H43.5961Z" fill="currentColor"/>
    <path d="M49.333 7.02336C49.8438 6.03895 50.5314 5.28171 51.4156 4.75164C52.2997 4.22158 53.282 3.95654 54.3626 3.95654C55.286 3.95654 56.1111 4.14585 56.7988 4.50554C57.4864 4.86523 58.0365 5.3385 58.4098 5.94429V4.14585H62.4374V16.8296H58.4098V15.0312C58.0169 15.618 57.4668 16.0913 56.7791 16.4699C56.0915 16.8485 55.2663 17.0189 54.3429 17.0189C53.282 17.0189 52.2997 16.7539 51.4156 16.2049C50.5314 15.6748 49.8438 14.8986 49.333 13.9142C48.8222 12.9298 48.5668 11.775 48.5668 10.4688C48.5668 9.16256 48.8222 8.0267 49.333 7.04229V7.02336ZM57.5846 8.17815C57.0345 7.61022 56.3469 7.34518 55.5414 7.34518C54.7359 7.34518 54.0679 7.62915 53.4981 8.17815C52.948 8.72714 52.6533 9.48438 52.6533 10.4688C52.6533 11.4532 52.9284 12.2104 53.4981 12.7784C54.0482 13.3463 54.7359 13.6303 55.5414 13.6303C56.3469 13.6303 57.0149 13.3463 57.5846 12.7973C58.1347 12.2294 58.4294 11.4721 58.4294 10.5067C58.4294 9.54118 58.1544 8.76501 57.5846 8.21601V8.17815Z" fill="currentColor"/>
    <path d="M63.8736 7.02339C64.3844 6.03898 65.072 5.28174 65.9562 4.75167C66.8403 4.2216 67.8226 3.95657 68.9032 3.95657C69.7676 3.95657 70.5535 4.12695 71.2804 4.48664C71.9877 4.82739 72.5575 5.30067 72.97 5.88753V0H76.9976V16.8107H72.97V14.9933C72.5968 15.5991 72.0466 16.0913 71.359 16.451C70.6517 16.8107 69.8462 17 68.9228 17C67.8422 17 66.8599 16.735 65.9758 16.186C65.0917 15.6559 64.4041 14.8797 63.8932 13.8953C63.3824 12.9109 63.127 11.7561 63.127 10.4499C63.127 9.14365 63.3824 8.0078 63.8932 7.02339H63.8736ZM72.1252 8.17817C71.5751 7.61025 70.8875 7.34521 70.082 7.34521C69.2765 7.34521 68.6085 7.62918 68.0387 8.17817C67.4689 8.72717 67.1939 9.48441 67.1939 10.4688C67.1939 11.4532 67.4689 12.2105 68.0387 12.7784C68.5888 13.3463 69.2765 13.6303 70.082 13.6303C70.8875 13.6303 71.5555 13.3463 72.1252 12.7973C72.6753 12.2294 72.97 11.4722 72.97 10.5067C72.97 9.5412 72.695 8.76503 72.1252 8.21604V8.17817Z" fill="currentColor"/>
    <path d="M85.3671 13.176L88.2159 4.12695H92.4989L87.823 16.8107H82.8524L78.1764 4.12695H82.4987L85.3475 13.176H85.3671Z" fill="currentColor"/>
    <path d="M90.8742 16.3943C90.4223 15.9967 90.2062 15.5045 90.2062 14.8987C90.2062 14.2929 90.4223 13.7818 90.8742 13.3842C91.326 12.9678 91.8958 12.7784 92.6031 12.7784C93.3104 12.7784 93.8605 12.9867 94.3123 13.3842C94.7642 13.8007 94.9803 14.2929 94.9803 14.8987C94.9803 15.5045 94.7642 15.9778 94.3123 16.3943C93.8605 16.7918 93.2907 17 92.6031 17C91.9154 17 91.326 16.7918 90.8742 16.3943Z" fill="currentColor"/>
    </g>
    <defs>
    <clipPath id="clip0_394_1638">
    <rect width="99" height="17" fill="currentColor"/>
    </clipPath>
    </defs>
</svg>