<svg width="124" height="27" viewBox="0 0 124 27" fill="none" xmlns="http://www.w3.org/2000/svg">
    <g clip-path="url(#clip0_394_1648)">
    <path d="M92.5448 7.3954C90.9909 7.3954 89.4997 8.01801 88.4167 9.11137V3.32566C88.4167 3.14343 88.2597 2.99158 88.0714 2.99158H85.9681C85.7797 2.99158 85.6228 3.14343 85.6228 3.32566V18.9668C85.6228 19.1491 85.7797 19.3009 85.9681 19.3009H88.0714C88.2597 19.3009 88.4167 19.1491 88.4167 18.9668V17.8887C89.4997 18.982 90.9752 19.6046 92.5448 19.6046C95.8253 19.6046 98.478 16.8712 98.478 13.5C98.478 10.1288 95.8253 7.3954 92.5448 7.3954ZM92.0582 17.1597C90.0648 17.1597 88.4481 15.5501 88.4324 13.5456V13.4545C88.4638 11.45 90.0648 9.84028 92.0582 9.84028C94.0516 9.84028 95.684 11.4803 95.684 13.5C95.684 15.5197 94.0516 17.1597 92.0582 17.1597Z" fill="currentColor"/>
    <path d="M106.216 7.39539C102.669 7.39539 99.7964 10.1288 99.7964 13.5C99.7964 16.8712 102.669 19.6046 106.216 19.6046C109.764 19.6046 112.636 16.8712 112.636 13.5C112.636 10.1288 109.764 7.39539 106.216 7.39539ZM106.2 17.1597C104.191 17.1597 102.575 15.5197 102.575 13.5C102.575 11.4803 104.207 9.84027 106.2 9.84027C108.194 9.84027 109.826 11.4803 109.826 13.5C109.826 15.5197 108.194 17.1597 106.2 17.1597Z" fill="currentColor"/>
    <path d="M66.96 7.6991H64.8567C64.6684 7.6991 64.5114 7.85095 64.5114 8.03318V9.11136C63.4284 8.018 61.9529 7.39539 60.3833 7.39539C57.1028 7.39539 54.4501 10.1288 54.4501 13.5C54.4501 16.8712 57.1028 19.6046 60.3833 19.6046C61.9372 19.6046 63.4284 18.982 64.5114 17.8886V18.9668C64.5114 19.149 64.6684 19.3009 64.8567 19.3009H66.96C67.1484 19.3009 67.3053 19.149 67.3053 18.9668V8.03318C67.3053 7.85095 67.1484 7.6991 66.96 7.6991ZM60.8699 17.1597C58.8608 17.1597 57.2441 15.5197 57.2441 13.5C57.2441 11.4803 58.8765 9.84027 60.8699 9.84027C62.8633 9.84027 64.48 11.4499 64.4957 13.4544V13.5456C64.48 15.5501 62.8633 17.1597 60.8699 17.1597Z" fill="currentColor"/>
    <path d="M77.4608 7.39539C75.9068 7.39539 74.4157 8.018 73.3327 9.11136V8.03318C73.3327 7.85095 73.1757 7.6991 72.9873 7.6991H70.884C70.6957 7.6991 70.5387 7.85095 70.5387 8.03318V23.6744C70.5387 23.8566 70.6957 24.0084 70.884 24.0084H72.9873C73.1757 24.0084 73.3327 23.8566 73.3327 23.6744V17.8886C74.4157 18.982 75.8911 19.6046 77.4608 19.6046C80.7413 19.6046 83.3939 16.8712 83.3939 13.5C83.3939 10.1288 80.7413 7.39539 77.4608 7.39539ZM76.9742 17.1597C74.9808 17.1597 73.364 15.5501 73.3483 13.5456V13.4544C73.3797 11.4499 74.9808 9.84027 76.9742 9.84027C78.9676 9.84027 80.6 11.4803 80.6 13.5C80.6 15.5197 78.9833 17.1597 76.9742 17.1597Z" fill="currentColor"/>
    <path d="M48.156 7.39546C46.5863 7.41064 45.158 8.29141 44.483 9.6733C43.7139 8.26104 42.1757 7.38027 40.5276 7.39546C39.2405 7.39546 38.0319 8.00288 37.2785 9.00513V8.03325C37.2785 7.85103 37.1215 7.69917 36.9332 7.69917H34.8299C34.6415 7.69917 34.4846 7.85103 34.4846 8.03325V18.9669C34.4846 19.1491 34.6415 19.301 34.8299 19.301H36.9332C37.1215 19.301 37.2785 19.1491 37.2785 18.9669V12.4219C37.357 10.9641 38.4086 9.79478 39.6957 9.79478C40.9828 9.79478 42.1443 10.873 42.1443 12.2852V18.9669C42.1443 19.1491 42.3013 19.301 42.4896 19.301H44.6086C44.797 19.301 44.9539 19.1491 44.9539 18.9669L44.9382 12.1637C45.1266 10.8274 46.1154 9.79478 47.3241 9.79478C48.6582 9.79478 49.7727 10.873 49.7727 12.2852V18.9669C49.7727 19.1491 49.9296 19.301 50.118 19.301H52.237C52.4253 19.301 52.5823 19.1491 52.5823 18.9669L52.5666 11.45C52.5666 9.20254 50.5889 7.39546 48.156 7.39546Z" fill="currentColor"/>
    <path d="M123.953 18.8302L120.311 13.4697L123.922 8.15471C124.016 8.01804 123.969 7.82063 123.827 7.72952C123.78 7.69915 123.717 7.68396 123.655 7.68396H121.222C121.033 7.68396 120.861 7.77507 120.767 7.92693L118.648 11.3741L116.529 7.94212C116.434 7.79026 116.262 7.69915 116.073 7.69915H113.641C113.468 7.69915 113.327 7.83582 113.327 8.00286C113.327 8.0636 113.342 8.12434 113.374 8.1699L116.984 13.4849L113.342 18.8454C113.248 18.982 113.295 19.1795 113.436 19.2706C113.484 19.3009 113.546 19.3161 113.609 19.3161H116.042C116.23 19.3161 116.403 19.225 116.497 19.0732L118.663 15.5805L120.829 19.0732C120.924 19.225 121.096 19.3161 121.285 19.3161H123.686C123.859 19.3161 124 19.1795 124 19.0124C124 18.9517 123.984 18.8909 123.953 18.8302Z" fill="currentColor"/>
    <path d="M13.9539 0C6.24709 0 0 6.04387 0 13.5C0 20.9561 6.24709 27 13.9539 27C21.6608 27 27.9078 20.9561 27.9078 13.5C27.9078 6.04387 21.6608 0 13.9539 0ZM20.5777 16.8105C15.8061 21.4269 7.28304 19.9539 7.28304 19.9539C7.28304 19.9539 5.74481 11.7233 10.5322 7.09168C13.1848 4.52531 17.5797 4.63161 20.358 7.30427C23.1362 9.97694 23.2304 14.2441 20.5777 16.8105Z" fill="currentColor"/>
    <path d="M15.555 7.91174L14.1894 10.63L11.3798 11.9511L14.1894 13.2723L15.555 15.9905L16.9205 13.2723L19.7301 11.9511L16.9205 10.63L15.555 7.91174Z" fill="currentColor"/>
    </g>
    <defs>
    <clipPath id="clip0_394_1648">
    <rect width="124" height="27" fill="currentColor"/>
    </clipPath>
    </defs>
</svg> 