<svg width="80" height="29" viewBox="0 0 80 29" fill="none" xmlns="http://www.w3.org/2000/svg">
    <path d="M56.3153 18.9753C54.5565 17.3432 53.6011 15.0368 53.701 12.653C53.7271 10.4712 54.6043 8.37949 56.1416 6.8161C57.4357 5.53619 59.3986 4.52686 62.7294 4.52686C63.7803 4.52686 64.8269 4.60846 65.8647 4.78456C66.59 4.93918 67.3239 5.04655 68.0621 5.10668C68.3053 5.10668 68.3487 5.20976 68.3487 5.33862C68.3487 5.46747 68.2836 5.76382 68.2445 6.53693C68.2054 7.31003 68.1967 8.41385 68.1794 8.73598C68.162 9.05811 68.1142 9.18696 67.9839 9.18696C67.8537 9.18696 67.8146 9.03234 67.8146 8.73598C67.8276 7.91563 67.4976 7.12535 66.9026 6.55411C65.6302 5.70369 64.1147 5.27848 62.5774 5.33862C59.7025 5.33862 58.3694 6.14608 57.6094 6.902C56.0287 8.40097 55.6639 10.2994 55.6639 12.4812C55.6118 16.7462 59.0598 20.2466 63.3721 20.2982C63.4025 20.2982 63.4329 20.2982 63.4633 20.2982C65.0918 20.2982 66.3598 20.1049 67.224 19.2287C67.6409 18.7047 67.9231 18.0905 68.0404 17.4334C68.0404 17.2015 68.1316 17.1113 68.2619 17.1113C68.3922 17.1113 68.4095 17.2659 68.4095 17.4334C68.3096 18.3568 68.149 19.2674 67.9362 20.1736C67.8059 20.5774 67.7668 20.6246 67.376 20.7921C66.1123 21.1572 64.8008 21.3204 63.485 21.2817C60.2106 21.2817 58.0306 20.4915 56.3196 18.971L56.3153 18.9753Z" fill="currentColor"/>
    <path d="M72.2658 11.0253V6.41244C72.2658 5.72953 72.0443 5.34297 71.3278 5.19694C71.0846 5.1497 70.8414 5.12822 70.5939 5.13252C70.5114 5.13252 70.4245 5.08527 70.4245 5.00367C70.4245 4.92206 70.5287 4.82757 70.7676 4.82757C71.7447 4.82757 73.1039 4.892 73.2081 4.892H78.1587C78.4714 4.87911 78.7797 4.84475 79.0881 4.78892C79.1923 4.78892 79.2835 4.67725 79.3877 4.67725C79.4919 4.67725 79.4789 4.76744 79.4789 4.87052C79.4789 4.9736 79.3747 5.28284 79.3095 5.87556C79.3095 6.08601 79.2444 7.02662 79.1966 7.28433C79.1966 7.38741 79.1315 7.51626 79.049 7.51626C78.9665 7.51626 78.8796 7.41318 78.8796 7.24138C78.8796 6.96649 78.8405 6.69591 78.7493 6.43391C78.593 6.0946 78.3845 5.8369 77.212 5.70805C76.8473 5.6694 74.4936 5.64363 74.2547 5.64363C74.1635 5.64363 74.1244 5.70805 74.1244 5.86267V11.7554C74.1244 11.9101 74.1244 11.9745 74.2547 11.9745C74.5326 11.9745 77.1947 11.9745 77.6897 11.9272C78.1848 11.88 78.5061 11.8456 78.7016 11.6309C78.897 11.4161 78.9447 11.356 79.0273 11.356C79.1098 11.356 79.1315 11.356 79.1315 11.5235C79.1315 11.691 79.0273 12.0131 78.9621 12.7132C78.923 13.1384 78.8796 13.9373 78.8796 14.0833C78.8796 14.2294 78.8796 14.4957 78.7233 14.4957C78.5669 14.4957 78.5669 14.4055 78.5669 14.3024C78.5756 14.0619 78.5496 13.8256 78.4844 13.5937C78.3932 13.2974 78.1978 12.9323 77.3597 12.8464C76.7734 12.782 74.6325 12.7433 74.2634 12.7433C74.1852 12.739 74.1201 12.7948 74.1157 12.8722C74.1157 12.8807 74.1157 12.8893 74.1157 12.8979V18.4299C74.1809 19.9031 74.5066 20.1866 76.6214 20.1866C77.3206 20.2252 78.0198 20.1436 78.6885 19.9461C79.2487 19.7141 79.5049 19.2846 79.6656 18.4084C79.6656 18.1765 79.7481 18.0949 79.861 18.0949C79.9739 18.0949 79.9913 18.2624 79.9913 18.4084C79.9913 18.5545 79.8133 20.0191 79.7047 20.4872C79.5961 20.9554 79.379 21.0413 78.5409 21.0413C75.2839 21.0413 73.8248 20.9124 73.1994 20.9124C73.0952 20.9124 71.7316 20.9769 71.0846 20.9769C70.8501 20.9769 70.7415 20.9296 70.7415 20.8094C70.7415 20.6891 70.7415 20.6805 70.9109 20.6805C71.1323 20.6719 71.3495 20.6418 71.5623 20.5903C71.9922 20.5001 72.1008 20.0363 72.1876 19.4135C72.2918 18.5201 72.2918 16.8279 72.2918 14.7748L72.2528 11.0296L72.2658 11.0253Z" fill="currentColor"/>
    <path d="M47.6908 20.5518C47.4129 20.5647 47.1349 20.5217 46.8744 20.4143C46.1796 20.1094 45.5586 19.6541 45.0592 19.0872C43.8041 17.76 42.332 15.8659 40.5645 13.611C42.51 11.8372 43.1788 10.2609 43.1788 8.67605C43.1571 7.53357 42.6056 6.46411 41.6893 5.76831C40.4994 5.05963 39.1184 4.73751 37.7331 4.84059C37.0644 4.84059 35.4229 4.90501 35.184 4.90501C35.0798 4.90501 33.7162 4.84059 32.7435 4.84059C32.509 4.84059 32.4004 4.88783 32.4004 5.01668C32.4004 5.14554 32.4829 5.14553 32.5698 5.14553C32.8173 5.14553 33.0605 5.16272 33.3037 5.20996C34.0202 5.35599 34.1896 5.69959 34.233 6.42545C34.2764 7.15131 34.2808 7.70537 34.2808 11.0383V14.8007C34.2808 16.8538 34.2808 18.546 34.1678 19.4394C34.0853 20.0579 33.9724 20.526 33.5425 20.6162C33.3297 20.6635 33.1169 20.6935 32.8998 20.7064C32.7695 20.7064 32.7304 20.7708 32.7304 20.8353C32.7304 20.8997 32.8347 21.0028 33.0735 21.0028C33.7249 21.0028 35.0841 20.9383 35.1015 20.9383C35.1189 20.9383 36.5737 21.0028 37.7635 21.0028C37.998 21.0028 38.1066 20.9383 38.1066 20.8353C38.1066 20.7322 38.1066 20.7064 37.9372 20.7064C37.7679 20.7064 37.2685 20.6592 36.9688 20.6162C36.3174 20.526 36.1524 20.0622 36.1524 19.4394C36.0482 18.546 36.0482 16.8538 36.0482 14.8007V14.2853C36.0482 14.1823 36.0482 14.1178 36.1959 14.1178L38.8579 14.1651C38.9621 14.1608 39.0663 14.2037 39.1358 14.2853C39.5657 14.8394 40.5863 16.2739 41.4982 17.4508C42.7272 19.0614 43.4871 20.1008 44.4121 20.5904C45.1286 20.9383 45.932 21.0801 46.7224 21.0028H47.3564C47.9991 21.0028 49.3671 20.9383 49.4713 20.9383C49.5755 20.9383 50.9391 21.0028 52.1246 21.0028C52.3678 21.0028 52.4764 20.9383 52.4764 20.8353C52.4764 20.7322 52.4286 20.7064 52.307 20.7064C52.1854 20.7064 51.6296 20.6592 51.3299 20.6162C50.6872 20.526 50.5135 20.0622 50.5135 19.4394C50.4006 18.546 50.4006 16.8538 50.4006 14.8007V11.0254C50.4006 7.69248 50.4006 7.09548 50.4484 6.41257C50.4961 5.72966 50.6612 5.30016 51.2648 5.19708C51.4515 5.15413 51.6426 5.13265 51.8337 5.13265C51.9118 5.13265 51.9726 5.07252 51.9726 4.99521C51.9726 4.99521 51.9726 4.99091 51.9726 4.98662C51.9726 4.86636 51.8597 4.82341 51.6296 4.82341C50.9782 4.82341 49.6189 4.88783 49.5147 4.88783C49.4105 4.88783 47.934 4.84059 47.2261 4.84059C46.9916 4.84059 46.8744 4.88783 46.8744 5.01668C46.8744 5.14554 46.9656 5.14553 47.0524 5.14553C47.2783 5.14553 47.4997 5.17131 47.7212 5.22714C48.1945 5.33881 48.4117 5.70389 48.4551 6.42545C48.4985 7.14702 48.4551 7.70537 48.4551 11.0383V14.8007C48.4551 16.8538 48.4551 18.546 48.3509 19.4394C48.3248 19.7143 48.2597 19.9891 48.1555 20.2468C48.0599 20.4315 47.8689 20.5518 47.6604 20.5518H47.6995H47.6908ZM40.013 13.0784C39.5223 13.3748 38.9578 13.5122 38.3845 13.4822C37.6116 13.5165 36.8342 13.4006 36.1047 13.1429C36.0091 13.0913 35.9527 12.9925 35.957 12.8852V5.89716C35.957 5.78549 36.0221 5.68241 36.1264 5.63946C36.6041 5.54497 37.0904 5.50202 37.5768 5.51061C39.8871 5.51061 41.3158 7.12125 41.3158 9.78846C41.3332 11.4163 40.7686 12.5673 40.013 13.0827V13.0784Z" fill="currentColor"/>
    <path d="M3.33081 3.78833C3.25698 3.73679 3.20487 3.65947 3.20053 3.56498C3.20053 3.49626 3.22224 3.42754 3.26567 3.37171L3.33081 3.78833C3.33081 3.78833 3.33515 3.78833 3.33949 3.79262L3.26567 3.32446C3.11802 3.3803 3.01814 3.52203 3.01379 3.68095C3.01379 3.87852 3.17881 4.03744 3.37858 4.04173V4.03314C3.37858 4.03314 3.37423 4.03314 3.36989 4.03314L3.33081 3.78833Z" fill="currentColor"/>
    <path d="M5.63673 3.771C5.58462 3.81824 5.51514 3.84401 5.44131 3.84401C5.39355 3.84401 5.35012 3.82254 5.31104 3.80106L5.35012 4.03729C5.48908 4.01152 5.60199 3.90844 5.63673 3.77529V3.771Z" fill="currentColor"/>
    <path d="M10.9174 20.2338L10.8783 20.0062C10.7958 19.9589 10.735 19.873 10.7306 19.77C10.722 19.7012 10.748 19.6282 10.7958 19.5767L10.8045 19.5853L10.7958 19.5251C10.6438 19.5767 10.5439 19.7184 10.5526 19.8816C10.5526 20.0835 10.7176 20.2424 10.9174 20.2424V20.2338C10.9174 20.2338 10.913 20.2338 10.9087 20.2338H10.913H10.9174Z" fill="currentColor"/>
    <path d="M3.37856 4.03314C3.53924 4.02884 3.67386 3.92147 3.71294 3.76685H3.67386C3.61741 3.81409 3.54358 3.83986 3.46976 3.83986C3.42199 3.83986 3.37856 3.81839 3.33948 3.79262L3.37856 4.02884V4.03314Z" fill="currentColor"/>
    <path d="M6.90478 7.16834C6.95255 7.21988 7.009 7.26712 7.05677 7.31437L6.3576 6.09888C6.4488 6.49402 6.63553 6.8591 6.90478 7.16834Z" fill="currentColor"/>
    <path d="M17.5008 3.79262C17.4227 3.74538 17.3662 3.66377 17.3619 3.56928C17.3619 3.49626 17.3879 3.42754 17.4357 3.376L17.5008 3.79262C17.5008 3.79262 17.5052 3.79262 17.5095 3.79692L17.4357 3.32446C17.288 3.3803 17.1882 3.52203 17.1838 3.68095C17.1838 3.87852 17.3488 4.03744 17.5486 4.04173V4.03314C17.5486 4.03314 17.5442 4.03314 17.5399 4.03314L17.5008 3.78833V3.79262Z" fill="currentColor"/>
    <path d="M19.8589 3.771L19.5201 4.0287V4.03729C19.6765 4.0287 19.8111 3.92562 19.8589 3.77529V3.771Z" fill="currentColor"/>
    <path d="M19.5245 4.04159V4.033C19.5245 4.033 19.5115 4.033 19.5071 4.033L19.5202 4.02441L19.4854 3.79677C19.4029 3.74953 19.3464 3.66792 19.3378 3.56913C19.3378 3.49612 19.3638 3.4274 19.4116 3.37586L19.4203 3.38445L19.4116 3.32861C19.2596 3.38015 19.1597 3.52618 19.1684 3.6851C19.1684 3.88267 19.3291 4.04159 19.5288 4.04588L19.5245 4.04159Z" fill="currentColor"/>
    <path d="M7.27826 8.02303C7.0177 7.85982 6.77886 7.65796 6.57909 7.42602C6.34025 7.15973 6.15352 6.85049 6.03192 6.51548C6.00152 6.44676 5.93639 6.40381 5.86256 6.40381H5.80611C5.80611 6.40381 5.79742 6.43817 5.80611 6.45105C5.94073 6.85908 6.15352 7.23275 6.43145 7.56347C6.64858 7.81258 6.90479 8.02733 7.18706 8.19913C7.35643 8.30221 7.53447 8.3924 7.71687 8.46542L7.54316 8.16047C7.45196 8.11752 7.36511 8.07457 7.27826 8.02303Z" fill="currentColor"/>
    <path d="M10.9174 20.2382C11.0737 20.2253 11.204 20.1222 11.2431 19.9719L10.913 20.2339L10.9174 20.2382Z" fill="currentColor"/>
    <path d="M17.5442 4.03299C17.6832 4.00722 17.7961 3.90414 17.8309 3.771C17.7787 3.81824 17.7093 3.84401 17.6354 3.84401C17.5877 3.84401 17.5442 3.82254 17.5052 3.80106L17.5442 4.03729V4.03299Z" fill="currentColor"/>
    <path d="M5.35013 4.04163V4.03304C5.35013 4.03304 5.34579 4.03304 5.34145 4.03304L5.30236 3.78823C5.2242 3.74098 5.16774 3.65938 5.1634 3.56488C5.1634 3.49187 5.18946 3.42315 5.23722 3.37161L5.30236 3.78823C5.30236 3.78823 5.30671 3.78823 5.31105 3.79252L5.23722 3.32007C5.08958 3.3759 4.98969 3.51764 4.98535 3.67656C4.98535 3.87413 5.15037 4.03304 5.35013 4.03734V4.04163Z" fill="currentColor"/>
    <path d="M12.8889 20.2467L12.902 20.2338C12.902 20.2338 12.8889 20.2338 12.8803 20.2381L12.9628 20.1737L13.1625 19.9761C13.1104 20.0276 13.0409 20.0534 12.9671 20.0491C12.8195 20.0362 12.7066 19.9202 12.6979 19.7742C12.6935 19.7055 12.7152 19.6325 12.763 19.5809C12.8195 19.5337 12.763 19.5337 12.763 19.5337C12.6154 19.5895 12.5155 19.7313 12.5198 19.8902C12.5285 20.0878 12.6892 20.2424 12.8846 20.251L12.8889 20.2467Z" fill="currentColor"/>
    <path d="M24.249 2.56842C24.249 2.13033 23.9581 1.73948 23.5325 1.61063C19.8282 0.536878 15.9893 0 12.1331 0C11.3905 0 10.6522 0.0558353 9.91833 0.0558353C6.80032 0.223341 3.71271 0.747334 0.716294 1.61922C0.286373 1.74378 -0.0089259 2.13892 -0.000240636 2.5856V12.8937C-0.000240636 19.8602 4.26857 26.1309 10.7955 28.7423C11.6554 29.0902 12.6151 29.0902 13.475 28.7423C20.0019 26.1309 24.2751 19.8602 24.2707 12.8937L24.2447 2.56842H24.249ZM21.1223 5.5234C21.283 5.73815 21.4089 5.97867 21.4958 6.23208C21.6434 6.66158 21.7607 7.10397 21.8389 7.55065H21.7998C21.5609 7.41751 21.3481 7.24571 21.1658 7.04384C20.9443 6.79043 20.7836 6.49408 20.6924 6.17195C20.675 6.09464 20.6012 6.0388 20.523 6.0431C20.5144 6.06028 20.5144 6.07746 20.523 6.09034C20.6142 6.48549 20.8053 6.85486 21.0789 7.15981C21.27 7.37885 21.4958 7.56354 21.7477 7.70527C21.9083 7.79547 22.0213 7.95438 22.056 8.13048V8.29369C21.8432 8.22068 21.6391 8.12619 21.4437 8.01022C21.1831 7.84701 20.9443 7.64514 20.7445 7.41321C20.51 7.14262 20.3233 6.83768 20.1973 6.50267C20.1713 6.43395 20.1018 6.3867 20.028 6.391H19.9802C19.9802 6.391 19.9802 6.42536 19.9802 6.43824C20.1192 6.83768 20.332 7.20705 20.6056 7.52488C20.8227 7.77399 21.0789 7.98874 21.3612 8.16055C21.5305 8.26363 21.7086 8.35382 21.891 8.42684C22.0821 8.49556 22.2254 8.65877 22.2644 8.85204C22.2731 8.91218 22.2731 8.9766 22.2644 9.03673C21.4784 8.84775 20.7706 8.42254 20.2451 7.81265C19.6632 7.13833 19.3419 6.28362 19.3419 5.39885C19.3419 5.33871 19.3419 5.27858 19.3419 5.22275C19.3419 5.18409 19.3766 5.14973 19.4157 5.14973H19.6024C19.7718 5.14973 19.9455 5.11967 20.1062 5.06813C20.2668 5.01229 20.4145 4.93069 20.5448 4.82761C20.5752 4.81472 20.6056 4.81472 20.636 4.82761C20.6533 4.88774 20.6273 4.95216 20.5708 4.98223C20.7836 5.12826 20.9703 5.30865 21.1267 5.51481L21.1223 5.5234ZM21.2352 8.98949L21.1875 9.07109L21.0832 9.24719C21.0832 9.24719 21.0485 9.25148 21.0355 9.24719C20.7749 9.16558 20.5187 9.0668 20.2712 8.95942C20.3537 8.78332 20.4232 8.60293 20.484 8.41825C20.7228 8.59434 20.9747 8.74467 21.2396 8.86922C21.27 8.90358 21.27 8.95513 21.2396 8.98949H21.2352ZM19.7457 9.57361H19.8499C19.9107 9.57361 19.9628 9.61226 19.9802 9.6681V9.79695H19.7935L19.7023 9.7497C19.6632 9.72823 19.6154 9.72823 19.5807 9.7497H19.1334C19.0856 9.7497 19.0856 9.68528 19.0856 9.68528C18.9944 9.65092 18.8946 9.69387 18.8598 9.77977C18.8424 9.78836 18.8251 9.78836 18.812 9.77977H18.7295C18.7295 9.77977 18.7165 9.77977 18.7122 9.77977C18.6861 9.77118 18.6731 9.74111 18.6818 9.71964V9.6638C18.7122 9.58649 18.786 9.53495 18.8685 9.53495H19.0162C19.1899 9.53495 19.3549 9.44905 19.4461 9.30302C19.5633 9.11834 19.6632 8.92506 19.7457 8.72319C19.7674 8.70601 19.7978 8.70601 19.8152 8.72319L19.9932 8.79621C20.0627 8.83916 20.0931 8.92935 20.0584 9.00666L19.9846 9.12693C19.9281 9.22142 19.863 9.3202 19.7978 9.41469L19.7414 9.4963C19.7414 9.4963 19.7327 9.50489 19.7283 9.50918C19.7153 9.53066 19.7197 9.56072 19.7414 9.5779L19.7457 9.57361ZM18.5819 9.39751C18.5037 9.44476 18.4429 9.51348 18.4125 9.59938L18.3734 9.69816V9.76259C18.3734 9.76259 18.3387 9.76688 18.3257 9.76259H18.0738C18.0738 9.76259 18.0608 9.76259 18.0564 9.76259C18.0304 9.754 18.0173 9.72393 18.026 9.70246C17.9392 9.6681 17.8393 9.71105 17.8046 9.79695H17.6743C17.6743 9.79695 17.6699 9.79266 17.6656 9.78836C17.6526 9.77118 17.6569 9.74541 17.6743 9.73252V9.67669C17.7047 9.59508 17.7828 9.54354 17.8697 9.54784H18.0087C18.1824 9.54784 18.3474 9.46194 18.4386 9.31591C18.5471 9.1484 18.6383 8.9723 18.7165 8.79191C18.7382 8.77473 18.7686 8.77473 18.7903 8.79191L18.8815 8.83916C18.9554 8.8864 18.9814 8.9809 18.938 9.05821C18.9032 9.12263 18.8251 9.18706 18.8251 9.25148C18.7643 9.3245 18.6818 9.38033 18.5906 9.4061L18.5819 9.39751ZM19.5416 8.67165C19.4895 8.64588 19.4374 8.61582 19.3896 8.58575L19.4287 8.47408L19.5764 8.59434L19.5416 8.67595V8.67165ZM19.9976 8.33664C20.0193 8.41395 20.0193 8.49985 19.9976 8.57716L19.9498 8.7146L19.6589 8.52133C19.546 8.43972 19.4417 8.35382 19.3419 8.26363C19.1073 8.04887 18.8989 7.80406 18.7252 7.53777C18.6948 7.49052 18.6383 7.46046 18.5775 7.45616C18.5471 7.44757 18.5168 7.44757 18.4864 7.45616C18.4777 7.47334 18.4777 7.49052 18.4864 7.50341V7.55924C18.621 7.77829 18.7773 7.98015 18.951 8.16914C19.0162 8.22927 19.0596 8.30658 19.0726 8.39248C19.0943 8.47838 19.0943 8.56428 19.0726 8.65018C19.0726 8.67595 19.0726 8.69742 19.0726 8.72319C18.7947 8.57716 18.5341 8.39248 18.3083 8.17343C17.5527 7.47764 17.1271 6.50267 17.1358 5.48475V5.28288C17.1358 5.23993 17.1749 5.20986 17.2183 5.20986H18.1693C18.2041 5.20986 18.2301 5.1798 18.2345 5.14544C18.2345 5.04665 18.1563 4.96934 18.0564 4.96934H17.4528C17.3486 4.95646 17.2661 4.87056 17.2574 4.76748C17.2444 4.63863 17.2661 4.50978 17.3138 4.38951C17.4267 4.45394 17.557 4.4883 17.6873 4.484C17.8046 4.484 17.9175 4.45824 18.0217 4.41099C18.0304 4.46253 18.0477 4.51407 18.0695 4.56561L18.4429 5.37308C18.4733 5.44609 18.5471 5.49334 18.6297 5.49334C18.7122 5.49334 18.7903 5.44609 18.8251 5.37308L19.1985 4.56561C19.2203 4.51837 19.2376 4.46683 19.2463 4.41099C19.3505 4.45824 19.4634 4.484 19.5807 4.484C19.711 4.484 19.8413 4.44964 19.9542 4.38951C20.0019 4.50978 20.0236 4.63863 20.0106 4.76748C20.0019 4.87056 19.9194 4.95646 19.8152 4.96934H19.2116C19.1117 4.96934 19.0335 5.04665 19.0335 5.14544C19.0335 5.1798 19.0639 5.20557 19.0987 5.20986C19.0987 5.28288 19.0987 5.36019 19.0987 5.4375C19.0987 5.91425 19.1855 6.3867 19.3592 6.82909C19.5199 7.25859 19.7631 7.65803 20.0671 8.00592L19.889 8.109C19.9411 8.16914 19.9802 8.24645 19.9932 8.32805L19.9976 8.33664ZM16.5452 5.02518C16.5452 5.02518 16.5495 4.99941 16.5582 4.98652C16.5799 4.95216 16.6277 4.94357 16.6581 4.96505H16.6972C16.8231 5.03377 16.8969 5.16691 16.8926 5.31294L16.8839 5.4418C16.8839 6.07746 17.0359 6.70883 17.3399 7.27148C17.3616 7.29295 17.3616 7.33161 17.3399 7.35308C17.3225 7.37026 17.2921 7.37026 17.2748 7.35308C16.7884 6.81191 16.5235 6.10752 16.5409 5.38166C16.5322 5.2657 16.5322 5.14544 16.5409 5.02947L16.5452 5.02518ZM16.2933 4.29932C16.2716 4.23489 16.2716 4.17047 16.2933 4.10604C16.3064 4.04162 16.3454 3.98578 16.3975 3.94283C16.5018 3.85693 16.6277 3.7968 16.7623 3.77533C16.771 3.8827 16.8058 3.99008 16.8579 4.08027C16.8926 4.15329 16.8926 4.23919 16.8579 4.3122C16.8014 4.45394 16.7797 4.60856 16.7927 4.76318L16.7667 4.81043C16.5626 4.68587 16.3932 4.50978 16.2846 4.29502L16.2933 4.29932ZM20.2929 3.67225C20.4275 3.69372 20.5534 3.74956 20.6577 3.83546C20.7098 3.87841 20.7445 3.93854 20.7619 4.00296C20.7836 4.06739 20.7836 4.1404 20.7619 4.20483C20.6577 4.41528 20.4926 4.59138 20.2885 4.71164C20.3016 4.55702 20.2799 4.4024 20.2234 4.26066C20.1887 4.18765 20.1887 4.10175 20.2234 4.02873C20.2799 3.93424 20.3103 3.83116 20.3189 3.72379L20.2885 3.67654L20.2929 3.67225ZM20.5013 2.90773C20.5491 2.90773 20.5925 2.9335 20.6142 2.97216C20.7619 3.18261 20.8401 3.43172 20.8444 3.68943C20.7185 3.58635 20.5708 3.51333 20.4145 3.47897C20.3233 3.4532 20.2451 3.39307 20.2017 3.31146C20.1626 3.23415 20.1105 3.16114 20.0454 3.10101L19.9889 3.09242C20.1192 2.97645 20.2885 2.91203 20.4622 2.90773H20.5013ZM19.3288 2.60278C19.4244 2.51259 19.5416 2.44816 19.6719 2.42669H19.8195C19.8673 2.43528 19.9107 2.45246 19.9498 2.47393C20.0801 2.50829 20.206 2.56413 20.3146 2.64144C20.1626 2.6801 20.0193 2.75311 19.8977 2.8519C19.8499 2.89055 19.7891 2.91203 19.7283 2.90773H19.5069C19.3722 2.90773 19.242 2.94639 19.1247 3.01081L19.0856 2.95498C19.1421 2.82183 19.2246 2.70157 19.3288 2.59849V2.60278ZM19.5242 3.13107C19.8239 3.13107 20.0714 3.37159 20.0714 3.67225C20.0714 3.9729 19.8282 4.21342 19.5242 4.21342C19.2203 4.21342 18.9771 3.9729 18.9771 3.67225C18.9771 3.37159 19.2203 3.13107 19.5242 3.13107ZM18.8989 4.44535L18.5819 5.10678C18.5819 5.10678 18.5689 5.12826 18.5558 5.13255C18.5298 5.14114 18.5037 5.13255 18.4907 5.10678L18.1737 4.44535C18.1476 4.38951 18.1303 4.32938 18.1303 4.26496C18.1303 4.04591 18.3126 3.86982 18.5298 3.87411C18.5949 3.87411 18.6601 3.887 18.7209 3.91706C18.9163 4.01585 18.9988 4.25207 18.8989 4.44535ZM18.3691 2.89055C18.3995 2.89914 18.4299 2.89914 18.4603 2.89055C18.4907 2.90344 18.5254 2.90344 18.5558 2.89055C18.6601 2.77029 18.7817 2.66721 18.9206 2.59419C18.8815 2.65003 18.8468 2.71016 18.8164 2.77029C18.7513 2.89914 18.6991 3.03658 18.6687 3.18261C18.6514 3.33723 18.6514 3.49615 18.6687 3.65077C18.6123 3.64218 18.5558 3.64218 18.4994 3.65077C18.4473 3.64218 18.3908 3.64218 18.3344 3.65077C18.3517 3.49615 18.3517 3.33723 18.3344 3.18261C18.304 3.04088 18.2562 2.90344 18.1867 2.77029C18.1129 2.70587 18.0738 2.65003 18 2.59419C18.1389 2.6715 18.2649 2.77029 18.3648 2.89055H18.3691ZM18.0912 3.67225C18.0912 3.9686 17.848 4.21342 17.544 4.21342C17.24 4.21342 16.9968 3.9729 16.9968 3.67225C16.9968 3.37159 17.24 3.13107 17.544 3.13107C17.848 3.13107 18.0912 3.37159 18.0912 3.67225ZM17.0837 2.42239C17.1315 2.4138 17.1836 2.4138 17.2313 2.42239H17.379C17.5006 2.47823 17.6048 2.56842 17.6699 2.68009C17.7742 2.78318 17.8567 2.90344 17.9131 3.03229C17.7959 2.96786 17.6656 2.92921 17.531 2.92921H17.3269C17.2661 2.92921 17.2053 2.91203 17.1575 2.87337C17.0359 2.74452 16.8839 2.65003 16.7189 2.5899C16.8275 2.51259 16.9534 2.45246 17.0837 2.42239ZM16.4236 2.99793C16.4453 2.95927 16.4887 2.9335 16.5365 2.9335C16.7146 2.9335 16.8839 3.00222 17.0185 3.11819C16.9577 3.17832 16.9056 3.25133 16.8622 3.32864C16.8144 3.41884 16.7319 3.48326 16.6364 3.50474C16.4757 3.54339 16.3237 3.61212 16.1978 3.7152C16.1978 3.45749 16.276 3.20838 16.4279 2.99793H16.4236ZM6.961 5.5234C7.12168 5.73815 7.24761 5.97867 7.33447 6.23208C7.47777 6.66588 7.59503 7.10397 7.67754 7.55495C7.43869 7.4218 7.2259 7.25 7.04351 7.04813C6.93494 6.91928 6.83941 6.78184 6.7569 6.63581C6.67873 6.48978 6.61359 6.33516 6.57016 6.17624C6.54845 6.09893 6.47897 6.04739 6.4008 6.04739C6.38777 6.04739 6.37475 6.04739 6.36172 6.04739L7.08694 7.3402C7.23893 7.48193 7.39961 7.61078 7.582 7.71386C7.74267 7.80406 7.85558 7.96297 7.89032 8.13907V8.30228C7.77307 8.26363 7.66016 8.21209 7.54726 8.16055L7.71662 8.4612C7.9077 8.59434 8.00323 8.83057 7.95112 9.05821V9.17847C7.16945 8.99808 6.46594 8.57716 5.94048 7.98015C5.35857 7.30584 5.03721 6.45113 5.03721 5.56635C5.03721 5.50622 5.03721 5.44609 5.03721 5.39026C5.03721 5.3516 5.07196 5.31724 5.11104 5.31724H5.29777C5.46714 5.31724 5.64084 5.28717 5.80152 5.23563C5.9622 5.1798 6.10985 5.09819 6.24012 4.99511C6.26618 4.98652 6.29658 4.98652 6.32263 4.99511C6.34869 4.98652 6.37909 4.98652 6.40514 4.99511C6.61793 5.14114 6.80467 5.32153 6.961 5.5277V5.5234ZM7.06957 8.98949L7.0218 9.07109L6.91758 9.24719C6.91758 9.24719 6.87849 9.25578 6.86112 9.24719C6.60056 9.16558 6.34435 9.0668 6.09682 8.95942C6.18367 8.78762 6.25749 8.60723 6.31829 8.41825C6.55279 8.59864 6.80467 8.74896 7.07391 8.86922C7.10431 8.90358 7.10431 8.95513 7.07391 8.98949H7.06957ZM5.55399 9.57361H5.65821C5.71901 9.57361 5.77112 9.61226 5.78849 9.6681V9.79695H5.60176L5.51056 9.7497C5.47582 9.72393 5.43239 9.72393 5.39765 9.7497H4.94168C4.94168 9.7497 4.91562 9.7497 4.90694 9.74111C4.88957 9.72823 4.88522 9.70246 4.90259 9.68528C4.8114 9.65092 4.71152 9.69387 4.67243 9.77977C4.65506 9.78836 4.63769 9.78836 4.62466 9.77977H4.54215C4.54215 9.77977 4.52913 9.77977 4.52478 9.77977C4.49873 9.77118 4.4857 9.74111 4.49439 9.71964V9.6638C4.52478 9.58649 4.59861 9.53495 4.68112 9.53495H4.82877C5.00247 9.53495 5.16749 9.44905 5.25869 9.30302C5.37594 9.11834 5.47582 8.92506 5.55833 8.72319H5.63216L5.80152 8.79621C5.871 8.83916 5.89706 8.93365 5.85797 9.00666C5.8406 9.04962 5.81889 9.08827 5.79283 9.12693C5.73638 9.22142 5.67124 9.3202 5.6061 9.41469L5.54965 9.4963C5.54965 9.4963 5.54096 9.50489 5.53662 9.50918C5.52359 9.53066 5.52793 9.56072 5.54965 9.5779L5.55399 9.57361ZM4.41188 9.39751C4.33371 9.44476 4.26857 9.51348 4.23383 9.59938V9.76259H3.98195C3.98195 9.76259 3.96893 9.76259 3.96458 9.76259C3.93853 9.754 3.9255 9.72393 3.93419 9.70246C3.84299 9.6681 3.74311 9.71105 3.70403 9.79695C3.68666 9.80554 3.66929 9.80554 3.65626 9.79695H3.57375C3.57375 9.79695 3.54769 9.79695 3.53901 9.78836C3.52164 9.77547 3.51729 9.7497 3.53466 9.73252V9.67669C3.56072 9.60797 3.62152 9.55643 3.69968 9.54784H3.83865C4.01235 9.54784 4.17737 9.46194 4.26857 9.31591C4.37279 9.1484 4.46399 8.9723 4.5465 8.79191C4.56821 8.77473 4.59861 8.77473 4.61598 8.79191L4.70717 8.83916C4.781 8.8864 4.80271 8.9809 4.76363 9.05821C4.72889 9.12263 4.6898 9.18706 4.65072 9.25148C4.58558 9.3202 4.50307 9.37174 4.41622 9.4061L4.41188 9.39751ZM5.18052 8.58575V8.47408H5.21961L5.36725 8.59434V8.69313L5.33251 8.67595C5.2804 8.65018 5.22829 8.62011 5.17618 8.58575H5.18052ZM5.83192 8.2851C5.85363 8.36241 5.85363 8.44831 5.83192 8.52562L5.78415 8.66306L5.49319 8.46979C5.38028 8.39248 5.27606 8.30228 5.17618 8.21209C4.94168 7.99734 4.73323 7.75252 4.55953 7.48623C4.52913 7.43898 4.47267 7.40892 4.41188 7.40462C4.38148 7.39603 4.35108 7.39603 4.32068 7.40462C4.31199 7.4218 4.31199 7.43898 4.32068 7.45187C4.30765 7.46905 4.30765 7.49052 4.32068 7.5077C4.4553 7.72675 4.61164 7.92861 4.78534 8.1176C4.84614 8.17773 4.88522 8.25933 4.89825 8.34094C4.92431 8.42684 4.92431 8.51274 4.89825 8.59864V8.67165C4.62032 8.52133 4.36845 8.34094 4.14263 8.12619C3.91247 7.91573 3.70837 7.67091 3.53901 7.40892C3.17422 6.83338 2.97446 6.16336 2.97012 5.48475V5.28288C2.97012 5.28288 2.97012 5.27858 2.97012 5.27429C2.97446 5.23563 3.0092 5.20557 3.05263 5.20986H3.98195C4.0167 5.20986 4.04275 5.1798 4.04709 5.14544C4.04709 5.04665 3.96893 4.96934 3.86905 4.96934H3.25673C3.15685 4.95216 3.07869 4.87056 3.07 4.76748C3.05697 4.63863 3.07869 4.50978 3.12646 4.38951C3.23936 4.45394 3.36964 4.4883 3.49992 4.484C3.61717 4.484 3.73008 4.45824 3.83431 4.41099C3.84299 4.46253 3.86036 4.51407 3.88207 4.56561L4.24686 5.37308C4.28594 5.44609 4.35976 5.49334 4.44227 5.49334C4.52478 5.49334 4.60295 5.44609 4.63769 5.37308L5.00247 4.56561C5.03287 4.51837 5.05024 4.46683 5.05893 4.41099C5.15881 4.45824 5.27172 4.484 5.38463 4.484C5.5149 4.484 5.64518 4.45394 5.75809 4.38951C5.80586 4.50978 5.82757 4.63863 5.81455 4.76748C5.80586 4.87056 5.72335 4.95646 5.61913 4.96934H5.0155C4.91562 4.96934 4.83745 5.04665 4.83745 5.14544C4.83745 5.1798 4.86785 5.20557 4.90259 5.20986C4.90259 5.28288 4.90259 5.36019 4.90259 5.4375C4.90259 5.91425 4.98945 6.3867 5.16315 6.82909C5.33686 7.26289 5.58439 7.66232 5.90574 8.00592L5.72769 8.06176C5.7798 8.12619 5.81455 8.1992 5.83192 8.28081V8.2851ZM2.64008 4.76748H2.6314C2.6314 4.76748 2.6314 4.76748 2.6314 4.76318C2.42729 4.64292 2.26227 4.46682 2.15805 4.25207C2.13199 4.19194 2.13199 4.11893 2.15805 4.0588C2.17108 3.99437 2.20582 3.93854 2.25793 3.89559C2.36649 3.81398 2.49243 3.75815 2.62271 3.72808C2.6314 3.83546 2.66614 3.94283 2.71825 4.03303C2.76602 4.12322 2.76167 4.2306 2.70088 4.3165C2.64442 4.45823 2.62271 4.60856 2.62705 4.76318C2.62705 4.76318 2.6314 4.76748 2.63574 4.76748H2.64008ZM2.37084 5.02518C2.37084 5.02518 2.37518 4.99941 2.38387 4.98652C2.40558 4.95216 2.45335 4.94357 2.48375 4.96505H2.52283C2.64877 5.03377 2.72259 5.16691 2.71825 5.31294V5.4418C2.71825 6.07746 2.87024 6.70883 3.17422 7.27148C3.1916 7.29295 3.1916 7.32731 3.17422 7.35308C3.15685 7.37026 3.12646 7.37026 3.10909 7.35308C3.00486 7.24141 2.91367 7.12115 2.83116 6.9923C2.52717 6.50696 2.36649 5.94861 2.36649 5.38166C2.35781 5.2657 2.35781 5.14544 2.36649 5.02947L2.37084 5.02518ZM3.94721 4.26496C3.94721 4.04591 4.1296 3.86982 4.34674 3.87411C4.56821 3.87411 4.7506 4.0545 4.75494 4.27784C4.75494 4.33797 4.74192 4.39381 4.71586 4.44535L4.39885 5.10678C4.39885 5.10678 4.38582 5.12826 4.37279 5.13255C4.34674 5.14114 4.32068 5.13255 4.30765 5.10678L3.99064 4.44535C3.96458 4.38951 3.94721 4.32938 3.94721 4.26496ZM6.13156 3.67225C6.26184 3.69372 6.38777 3.74956 6.492 3.83546C6.54845 3.87411 6.58753 3.93854 6.59622 4.00296C6.62228 4.06739 6.62228 4.1404 6.59622 4.20483C6.492 4.41528 6.32698 4.59138 6.12287 4.71164C6.1359 4.55702 6.10985 4.4024 6.04905 4.26066C6.01865 4.18765 6.01865 4.10175 6.04905 4.02873C6.1055 3.93424 6.1359 3.83116 6.14459 3.72379L6.12722 3.67654L6.13156 3.67225ZM6.33566 2.90773C6.38343 2.90773 6.42252 2.9335 6.44857 2.97216C6.59188 3.18261 6.67004 3.43172 6.67004 3.68943C6.54411 3.58635 6.39646 3.51333 6.24012 3.47897C6.14893 3.4532 6.07076 3.39307 6.02734 3.31146C5.98391 3.23415 5.9318 3.16543 5.871 3.10101C5.871 3.09242 5.82323 3.09242 5.82323 3.09242C5.95351 2.97645 6.12287 2.91203 6.29658 2.90773H6.33566ZM5.1371 2.65003C5.22829 2.55554 5.34988 2.49541 5.48016 2.47393H5.61913C5.67124 2.46534 5.72335 2.46534 5.77546 2.47393C5.90574 2.50829 6.03168 2.56413 6.14024 2.64144C5.99259 2.68439 5.85363 2.75311 5.73204 2.8519C5.68427 2.89055 5.62347 2.90773 5.56267 2.90773H5.33251C5.19789 2.90773 5.06761 2.94639 4.95036 3.01081L4.89391 3.00222C4.94602 2.86478 5.02853 2.74452 5.1371 2.65003ZM5.34988 3.13107C5.64953 3.13107 5.89706 3.37159 5.89706 3.67225C5.89706 3.9729 5.65387 4.21342 5.34988 4.21342C5.0459 4.21342 4.80271 3.9729 4.80271 3.67225C4.80271 3.37159 5.0459 3.13107 5.34988 3.13107ZM4.20777 2.89055C4.23817 2.89914 4.26857 2.89914 4.29897 2.89055C4.32937 2.90344 4.36411 2.90344 4.3945 2.89055C4.49439 2.77029 4.61598 2.66721 4.75494 2.59419C4.71586 2.65003 4.68112 2.71016 4.65072 2.77029C4.58558 2.89914 4.53347 3.03658 4.50307 3.18261C4.48136 3.33723 4.48136 3.49615 4.50307 3.65077C4.39016 3.62071 4.27291 3.62071 4.16 3.65077C4.16869 3.49615 4.15132 3.33723 4.12092 3.18261C4.09921 3.04088 4.05144 2.89914 3.98195 2.77029C3.94287 2.70587 3.8951 2.65003 3.84299 2.59419C3.98195 2.6715 4.10789 2.77029 4.20777 2.89055ZM3.9255 3.67225C3.9255 3.9686 3.68231 4.21342 3.37833 4.21342C3.07434 4.21342 2.83116 3.9729 2.83116 3.67225C2.83116 3.37159 3.07434 3.13107 3.37833 3.13107C3.68231 3.13107 3.9255 3.37159 3.9255 3.67225ZM2.88327 2.504C2.93104 2.49541 2.98315 2.49541 3.03092 2.504H3.17857C3.30885 2.52977 3.4261 2.5899 3.52164 2.68009C3.62586 2.78318 3.70837 2.90344 3.76482 3.03229C3.64757 2.96786 3.51729 2.92921 3.38267 2.92921H3.1612C3.09606 2.92921 3.03526 2.91203 2.98315 2.87337C2.84853 2.77029 2.68785 2.70157 2.51849 2.6715C2.62705 2.59419 2.75299 2.53406 2.88327 2.504ZM2.27964 2.99793C2.30136 2.95927 2.34478 2.9335 2.39255 2.9335C2.5706 2.9335 2.73996 3.00222 2.87458 3.11819C2.81379 3.17832 2.76167 3.25133 2.71825 3.32864C2.67048 3.41884 2.58363 3.48326 2.48375 3.50474C2.32741 3.54339 2.17976 3.61641 2.05383 3.7152C2.05383 3.45749 2.13199 3.20838 2.27964 2.99793ZM12.1504 18.9668C12.0766 19.0957 12.0289 19.2331 12.0028 19.3791C11.9811 19.5338 11.9811 19.6927 12.0028 19.8473C11.8899 19.8129 11.7726 19.8129 11.6597 19.8473C11.6814 19.6927 11.6814 19.5338 11.6597 19.3791C11.6293 19.2374 11.5816 19.1 11.5121 18.9668C11.46 18.9024 11.4035 18.8423 11.3427 18.7907C11.4817 18.868 11.6076 18.9668 11.7075 19.0871C11.7075 19.0871 11.7075 19.0914 11.7162 19.0957C11.764 19.1429 11.8421 19.1386 11.8899 19.0871C11.9941 18.9668 12.1157 18.8637 12.2547 18.7907C12.2156 18.8466 12.1808 18.9067 12.1504 18.9668ZM12.3024 20.4701C12.3024 20.5302 12.2894 20.586 12.2634 20.6376L11.9463 21.299C11.9463 21.3205 11.929 21.3377 11.9073 21.3377C11.8855 21.3377 11.8682 21.3205 11.8682 21.299L11.5512 20.6376C11.5208 20.586 11.5077 20.5259 11.5121 20.4701C11.5121 20.4701 11.5121 20.4658 11.5121 20.4615C11.5121 20.2424 11.6901 20.0664 11.9116 20.0664C11.9116 20.0664 11.9159 20.0664 11.9203 20.0664C12.1418 20.0706 12.3155 20.251 12.3111 20.4701H12.3024ZM11.4643 19.8774C11.4643 20.1737 11.2211 20.4185 10.9171 20.4185C10.6132 20.4185 10.37 20.178 10.37 19.8774C10.37 19.5767 10.6132 19.3362 10.9171 19.3362C11.2211 19.3362 11.4643 19.5767 11.4643 19.8774ZM11.3036 19.2331C11.1864 19.1687 11.0561 19.13 10.9215 19.13H10.7C10.6349 19.13 10.5741 19.1129 10.522 19.0742C10.4004 18.9797 10.2571 18.911 10.1051 18.8723C10.2136 18.7907 10.3396 18.7349 10.4698 18.7048C10.5176 18.6962 10.5697 18.6962 10.6175 18.7048H10.7565C10.8867 18.7306 11.0083 18.7907 11.1082 18.8809C11.2124 18.9797 11.2949 19.1 11.3427 19.2331H11.3036ZM10.3917 19.3104C10.3265 19.3706 10.2701 19.4436 10.2267 19.5209C10.1832 19.6111 10.1051 19.6755 10.0052 19.697C9.84885 19.7356 9.7012 19.8044 9.57527 19.9074C9.57527 19.6497 9.65343 19.4006 9.80543 19.1902C9.82714 19.1515 9.86622 19.13 9.90965 19.1257C10.0877 19.13 10.2571 19.1945 10.3917 19.3104ZM9.67949 20.4787C9.65343 20.4185 9.65343 20.3455 9.67949 20.2854C9.69252 20.221 9.72726 20.1651 9.77503 20.1222C9.87925 20.0363 10.0052 19.9762 10.1398 19.9547C10.1572 20.0621 10.1876 20.1651 10.2397 20.2596C10.2744 20.3326 10.2744 20.4185 10.2397 20.4916C10.1832 20.6333 10.1615 20.7879 10.1659 20.9425C10.1572 20.9425 10.1572 20.9898 10.1572 20.9898C9.94873 20.8695 9.77937 20.6891 9.67515 20.4744L9.67949 20.4787ZM10.7174 23.5496C10.7174 23.5496 10.674 23.5625 10.6522 23.5496C10.5524 23.4337 10.4655 23.3134 10.383 23.1888C10.079 22.7035 9.91833 22.1451 9.91833 21.5782C9.90965 21.4579 9.90965 21.3377 9.91833 21.2174C9.91833 21.2088 9.92268 21.1959 9.93136 21.1874C9.95308 21.153 10.0008 21.1444 10.0312 21.1702H10.0703C10.1919 21.2432 10.2657 21.3763 10.2657 21.5181C10.2571 21.561 10.2527 21.604 10.2484 21.6469C10.2484 22.2869 10.4091 22.914 10.713 23.4766C10.7347 23.4981 10.7347 23.5367 10.713 23.5582L10.7174 23.5496ZM11.7509 25.7873V25.9505C11.7509 25.9505 11.7162 25.9591 11.7032 25.9505H11.4513C11.4513 25.9505 11.4469 25.9462 11.4426 25.9419C11.4296 25.9248 11.4339 25.899 11.4513 25.8861C11.3601 25.8517 11.2602 25.8947 11.2255 25.9806C11.2081 25.9892 11.1907 25.9892 11.1777 25.9806H11.0952C11.0952 25.9806 11.0822 25.9806 11.0778 25.9806C11.0518 25.972 11.0387 25.9419 11.0474 25.9205V25.8646C11.0778 25.7873 11.1516 25.7358 11.2342 25.7358H11.3818C11.5555 25.7358 11.7205 25.6499 11.8117 25.5039C11.9159 25.3363 12.0071 25.1603 12.0897 24.9799C12.107 24.9627 12.1374 24.9627 12.1548 24.9799L12.246 25.0357C12.3242 25.0786 12.3546 25.1731 12.3111 25.2547L12.1895 25.448C12.12 25.521 12.0332 25.5683 11.9377 25.594C11.8551 25.637 11.7944 25.71 11.7596 25.7959L11.7509 25.7873ZM13.3794 25.1989L13.3143 25.3192C13.2578 25.4137 13.1927 25.5124 13.1275 25.6069L13.0624 25.6885C13.0059 25.7229 13.0624 25.7701 13.0624 25.7701H13.1753C13.2361 25.7701 13.2882 25.8088 13.3056 25.8646V25.9935H13.1493L13.0581 25.9462C13.0233 25.9205 12.9799 25.9205 12.9452 25.9462H12.4892C12.4892 25.9462 12.4761 25.9462 12.4718 25.9462C12.4457 25.9376 12.4327 25.9076 12.4414 25.8861C12.4414 25.8861 12.4371 25.8861 12.4327 25.8861C12.3459 25.8517 12.246 25.899 12.2112 25.9849C12.1939 25.9935 12.1722 25.9935 12.1548 25.9849H12.0723C12.0723 25.9849 12.0462 25.9849 12.0375 25.9763C12.0202 25.9634 12.0158 25.9376 12.0332 25.9205V25.8646C12.0593 25.7873 12.1374 25.7358 12.2199 25.7358H12.3676C12.5413 25.7358 12.702 25.6456 12.7975 25.5039C12.9104 25.3192 13.0103 25.1259 13.0885 24.924C13.0885 24.924 13.0885 24.924 13.0885 24.9197C13.1102 24.9025 13.1406 24.9025 13.1579 24.924L13.2969 24.9799C13.2969 24.9799 13.3056 24.9799 13.3099 24.9842C13.3881 25.0271 13.4142 25.1259 13.3707 25.2032L13.3794 25.1989ZM12.9061 24.8854L12.7584 24.6663L12.9061 24.7866V24.8854L12.867 24.9111L12.7106 24.8209L12.9061 24.8854ZM13.4185 24.5289C13.4402 24.6062 13.4402 24.6921 13.4185 24.7694L13.3707 24.9068L13.0754 24.7136C12.9625 24.632 12.854 24.5461 12.7497 24.4559C12.5152 24.2411 12.3068 23.9963 12.1331 23.73C12.1027 23.6785 12.0462 23.6484 11.9854 23.6484C11.955 23.6398 11.9246 23.6398 11.8942 23.6484C11.8899 23.6656 11.8899 23.6828 11.8942 23.6956C11.8942 23.7128 11.8942 23.7343 11.8942 23.7515C12.0332 23.9705 12.1895 24.1724 12.3676 24.3614C12.424 24.4258 12.4675 24.5031 12.4805 24.589C12.5065 24.6749 12.5065 24.7608 12.4805 24.8467C12.4805 24.8725 12.4805 24.894 12.4805 24.9197C12.2069 24.7694 11.9507 24.5847 11.7249 24.37C11.4904 24.1595 11.2906 23.919 11.1212 23.6527C10.7434 23.06 10.5437 22.3771 10.5437 21.6813C10.5437 21.6126 10.5437 21.5481 10.5437 21.4794C10.5437 21.4408 10.5784 21.4064 10.6175 21.4064H11.5468C11.5816 21.4064 11.612 21.3763 11.612 21.342C11.612 21.342 11.612 21.3377 11.612 21.3334C11.612 21.2389 11.5338 21.1659 11.4426 21.1659H10.8303C10.7261 21.1487 10.6479 21.0671 10.6349 20.964C10.6262 20.8352 10.6479 20.7063 10.7 20.5861C10.8129 20.6505 10.9432 20.6848 11.0735 20.6805C11.1864 20.6805 11.2993 20.6548 11.3992 20.6075C11.4122 20.6634 11.4339 20.7149 11.4556 20.7707L11.8204 21.5782C11.8421 21.6169 11.8725 21.6512 11.9159 21.6727C12.0245 21.7285 12.1548 21.6856 12.2112 21.5782L12.576 20.7707C12.5977 20.7192 12.6195 20.6634 12.6325 20.6075C12.7324 20.6548 12.8453 20.6805 12.9582 20.6805C13.0885 20.6805 13.2187 20.6462 13.3316 20.5861C13.3838 20.7063 13.4055 20.8352 13.3968 20.964C13.3838 21.0671 13.3056 21.1487 13.2014 21.1659H12.5891C12.5891 21.1659 12.5847 21.1659 12.5804 21.1659C12.4848 21.1702 12.4153 21.2475 12.4197 21.342C12.4197 21.3763 12.4501 21.4064 12.4848 21.4064C12.4848 21.4794 12.4848 21.5567 12.4848 21.6297C12.4761 22.1065 12.5587 22.5746 12.7193 23.0213C12.8844 23.4508 13.1275 23.846 13.4272 24.1982L13.2969 24.3012C13.3534 24.3614 13.3924 24.4387 13.4098 24.5203L13.4185 24.5289ZM13.7833 19.7142C13.6921 19.6884 13.6096 19.6283 13.5618 19.5467C13.5271 19.465 13.4706 19.3963 13.4055 19.3362C13.4055 19.3061 13.3881 19.3104 13.3751 19.319C13.3707 19.3233 13.362 19.3233 13.3577 19.3319C13.3577 19.3319 13.3664 19.3233 13.3751 19.319C13.5053 19.2116 13.666 19.1515 13.8354 19.1429H13.8745C13.9179 19.1429 13.957 19.1687 13.9787 19.2073C14.1263 19.4178 14.2045 19.6669 14.2045 19.9246C14.0786 19.8258 13.9309 19.7528 13.7746 19.7142H13.7833ZM14.1524 20.3971C14.0438 20.6075 13.8788 20.7836 13.6704 20.9039C13.6791 20.7493 13.653 20.5946 13.5965 20.4529C13.5575 20.3799 13.5575 20.294 13.5965 20.221C13.6487 20.1265 13.6791 20.0234 13.6877 19.916L13.7138 19.8688C13.8441 19.8903 13.97 19.9461 14.0742 20.032C14.1828 20.1222 14.2175 20.2768 14.1567 20.4014L14.1524 20.3971ZM13.2708 19.0441C13.2187 19.0828 13.1579 19.1043 13.0928 19.1H12.8713C12.7367 19.1 12.6064 19.1386 12.4892 19.2031L12.4414 19.1945C12.4935 19.0613 12.5717 18.9411 12.6759 18.838C12.7714 18.7478 12.893 18.6834 13.0277 18.6619H13.1666C13.2144 18.6533 13.2665 18.6533 13.3143 18.6619C13.4446 18.6962 13.5705 18.7521 13.6791 18.8294C13.5271 18.868 13.3881 18.9411 13.2708 19.0398V19.0441ZM12.8887 19.3362C13.1883 19.3362 13.4359 19.5767 13.4359 19.8774C13.4359 20.178 13.1927 20.4185 12.8887 20.4185C12.5847 20.4185 12.3415 20.178 12.3415 19.8774C12.3415 19.5767 12.5847 19.3362 12.8887 19.3362ZM14.5606 25.1817V25.2633L14.4477 25.4394C14.4477 25.4394 14.413 25.448 14.3999 25.4394C14.1394 25.3578 13.8832 25.2633 13.6356 25.1474C13.7225 24.9756 13.7963 24.7952 13.8571 24.6062C14.0742 24.7823 14.3131 24.9326 14.565 25.0572C14.5954 25.0915 14.5954 25.1431 14.565 25.1774L14.5606 25.1817ZM15.529 25.3363C15.1382 25.2547 14.7691 25.1087 14.4303 24.9025C13.7138 24.473 13.1623 23.8159 12.8583 23.0428C12.702 22.6262 12.6238 22.1838 12.6238 21.7371V21.561C12.6238 21.5181 12.6629 21.488 12.7063 21.488H12.8844C13.0581 21.488 13.2274 21.4579 13.3881 21.3978C13.5488 21.3463 13.7008 21.269 13.8354 21.1659C13.8614 21.1573 13.8918 21.1573 13.9179 21.1659C13.944 21.1573 13.9657 21.1573 13.9917 21.1659C14.2089 21.3076 14.3956 21.488 14.5432 21.6985C14.7039 21.9132 14.8342 22.1537 14.9167 22.4071C15.0644 22.8409 15.1816 23.279 15.2685 23.73H15.2294C14.9905 23.5926 14.7821 23.4208 14.604 23.2146C14.4911 23.0943 14.3956 22.9569 14.3174 22.8109C14.2349 22.6648 14.1741 22.5102 14.1307 22.3513C14.109 22.274 14.0352 22.2182 13.9526 22.2225C13.9396 22.2225 13.9266 22.2225 13.9136 22.2225C13.9136 22.2396 13.9136 22.2568 13.9136 22.2697C14.0091 22.6648 14.2002 23.0342 14.4651 23.3392C14.6605 23.5539 14.8863 23.7429 15.1425 23.8889C15.3032 23.9791 15.4161 24.1337 15.4422 24.3141V24.4773C15.2294 24.4043 15.0253 24.3098 14.8299 24.1939C14.565 24.035 14.3261 23.8331 14.122 23.5969C13.9049 23.3349 13.7355 23.0428 13.6183 22.725C13.5879 22.6563 13.5227 22.6133 13.4489 22.6133H13.3924C13.3924 22.6133 13.3664 22.6133 13.3534 22.6133C13.3447 22.6262 13.3447 22.6477 13.3534 22.6605C13.4836 23.0643 13.6964 23.4337 13.9787 23.7472C14.3261 24.1466 14.7691 24.4602 15.2641 24.6577C15.4465 24.7823 15.5507 24.9927 15.5334 25.2118C15.5334 25.2504 15.5334 25.2934 15.5334 25.3321L15.529 25.3363ZM20.7054 22.1967L20.3711 22.6563L12.1287 14.5086L3.8951 22.6563L3.55203 22.1967C3.21765 21.7071 2.90932 21.2045 2.62271 20.6891L12.1244 11.283L21.6261 20.6891C21.3481 21.2088 21.0355 21.7113 20.6968 22.1967H20.7054ZM22.1732 19.6111L12.1331 9.67239L2.05383 19.6497C1.71944 18.868 1.4502 18.0606 1.23741 17.2359L12.1331 6.45113L23.0374 17.193C22.8116 18.0176 22.525 18.8251 22.1732 19.6068V19.6111Z" fill="currentColor"/>
    <path d="M13.2146 19.9718L12.9628 20.1694L12.902 20.2295C13.0496 20.2123 13.1756 20.1136 13.2146 19.9675V19.9718Z" fill="currentColor"/>
</svg>