<svg width="48" height="55" viewBox="0 0 48 55" fill="none" xmlns="http://www.w3.org/2000/svg">
<path fill-rule="evenodd" clip-rule="evenodd" d="M4.34647 48.7491L0 0H47.7608L43.4097 48.7411L23.8515 54.1637L4.34647 48.7491Z" fill="#0071BC"/>
<path fill-rule="evenodd" clip-rule="evenodd" d="M23.9205 50.0161L39.7049 45.6738L43.4031 4.05957H23.9205V50.0161Z" fill="#29ABE2"/>
<path fill-rule="evenodd" clip-rule="evenodd" d="M9.9491 21.9698L10.4727 27.9399L23.9206 21.9698V15.99L9.9491 21.9698Z" fill="#B3B3B3"/>
<path fill-rule="evenodd" clip-rule="evenodd" d="M38.8145 9.60693L23.9205 15.99V21.9698L38.301 15.577L38.8145 9.60693Z" fill="#E6E6E6"/>
<path fill-rule="evenodd" clip-rule="evenodd" d="M23.9205 37.5905L23.8743 37.5975L17.2051 35.8064L16.7694 31.0444H10.7672L11.6048 40.4258L23.873 43.8227L23.9205 43.8115V37.5905Z" fill="#E6E6E6"/>
<path fill-rule="evenodd" clip-rule="evenodd" d="M23.9205 21.97V27.9401H31.2222L30.5586 35.7455L23.9205 37.5958V43.8162L36.148 40.4194L37.7582 21.97H23.9205Z" fill="white"/>
<path fill-rule="evenodd" clip-rule="evenodd" d="M23.9206 21.97H9.9491L10.4727 27.9401H23.9206V21.97Z" fill="#E6E6E6"/>
<path fill-rule="evenodd" clip-rule="evenodd" d="M23.9205 15.577V9.60693H23.8599H8.88757L9.41736 15.577H23.9205Z" fill="#E6E6E6"/>
<path fill-rule="evenodd" clip-rule="evenodd" d="M23.9205 9.60693V15.5022V15.577H38.301L38.8145 9.60693H23.9205Z" fill="white"/>
</svg>
