<svg width="33" height="49" viewBox="0 0 33 49" fill="none" xmlns="http://www.w3.org/2000/svg">
<path fill-rule="evenodd" clip-rule="evenodd" d="M16.0876 24.1314C16.0876 19.689 19.689 16.0876 24.1313 16.0876C28.5737 16.0876 32.1751 19.689 32.1751 24.1314C32.1751 28.5738 28.5737 32.1751 24.1313 32.1751C19.689 32.1751 16.0876 28.5738 16.0876 24.1314Z" fill="#1ABCFE"/>
<path fill-rule="evenodd" clip-rule="evenodd" d="M6.10352e-05 40.2185C6.10352e-05 35.7762 3.60137 32.1748 8.04381 32.1748H16.0876V40.2185C16.0876 44.6609 12.4862 48.2623 8.04381 48.2623C3.60137 48.2623 6.10352e-05 44.6609 6.10352e-05 40.2185Z" fill="#0ACF83"/>
<path fill-rule="evenodd" clip-rule="evenodd" d="M16.0876 0V16.0875H24.1313C28.5737 16.0875 32.1751 12.4861 32.1751 8.04375C32.1751 3.60131 28.5737 0 24.1313 0H16.0876Z" fill="#FF7262"/>
<path fill-rule="evenodd" clip-rule="evenodd" d="M0 8.04375C0 12.4861 3.60131 16.0875 8.04375 16.0875H16.0875V0H8.04375C3.60131 0 0 3.60131 0 8.04375Z" fill="#F24E1E"/>
<path fill-rule="evenodd" clip-rule="evenodd" d="M6.10352e-05 24.1314C6.10352e-05 28.5738 3.60137 32.1751 8.04381 32.1751H16.0876V16.0876H8.04381C3.60137 16.0876 6.10352e-05 19.689 6.10352e-05 24.1314Z" fill="#A259FF"/>
</svg>
