<svg width="49" height="55" viewBox="0 0 49 55" fill="none" xmlns="http://www.w3.org/2000/svg">
<path fill-rule="evenodd" clip-rule="evenodd" d="M4.68347 49.372L0.281616 0H48.6504L44.2439 49.3642L24.4364 54.8555L4.68347 49.372Z" fill="#E44D26"/>
<path fill-rule="evenodd" clip-rule="evenodd" d="M24.4659 50.6582L40.4714 46.2209L44.237 4.03687H24.4659V50.6582Z" fill="#F16529"/>
<path d="M16.4533 22.3483H24.466V28.4035H10.9154L9.28223 10.0923H24.466V16.1476H15.8999L16.4533 22.3483Z" fill="#EBEBEB"/>
<path d="M24.4394 38.0816L24.466 38.0745V44.3745L24.4381 44.3822L12.0343 40.9389L11.186 31.4312H17.2645L17.6956 36.2606L24.4394 38.0816Z" fill="#EBEBEB"/>
<path d="M24.4451 10.0923H39.6136L39.0714 16.1476H24.4451V10.0923Z" fill="white"/>
<path d="M24.4451 28.4035V22.3483H38.5204L38.3727 23.9743L36.8587 40.9389L24.4451 44.3793V38.0796L31.1986 36.2567L31.9015 28.4035H24.4451Z" fill="white"/>
</svg>
