<svg width="56" height="54" viewBox="0 0 56 54" fill="none" xmlns="http://www.w3.org/2000/svg">
<path d="M9.91667 0H46.0833C51.5667 0 56 4.38462 56 9.80769V44.1923C56 49.6154 51.5667 54 46.0833 54H9.91667C4.43333 54 0 49.6154 0 44.1923V9.80769C0 4.38462 4.43333 0 9.91667 0Z" fill="#330000"/>
<path d="M27.0667 32.3077H18.3867L16.6134 37.7308C16.5667 37.9385 16.38 38.0769 16.17 38.0539H11.7834C11.5267 38.0539 11.4567 37.9154 11.5267 37.6385L19.04 16.2462C19.11 16.0154 19.18 15.7615 19.2734 15.4846C19.3667 15 19.4134 14.4923 19.4134 13.9846C19.39 13.8692 19.4834 13.7539 19.6 13.7308H25.6434C25.83 13.7308 25.9234 13.8 25.9467 13.9154L34.4634 37.6846C34.5334 37.9385 34.4634 38.0539 34.23 38.0539H29.3534C29.19 38.0769 29.0267 37.9615 28.98 37.8L27.0667 32.3077ZM19.74 27.6231H25.6667C25.5267 27.1385 25.34 26.5615 25.13 25.9615C24.92 25.3385 24.71 24.6692 24.5 23.9769C24.2667 23.2615 24.0567 22.5692 23.8234 21.8539C23.59 21.1385 23.38 20.4692 23.1934 19.8C23.0067 19.1539 22.8434 18.5539 22.68 18H22.6334C22.4234 18.9923 22.1667 19.9846 21.84 20.9769C21.49 22.0846 21.14 23.2385 20.7667 24.3923C20.44 25.5692 20.09 26.6539 19.74 27.6231ZM39.6667 17.7692C38.8967 17.7923 38.15 17.4923 37.59 16.9615C37.0534 16.3846 36.7734 15.6231 36.7967 14.8385C36.7734 14.0539 37.0767 13.3154 37.6367 12.7846C38.1967 12.2539 38.9434 11.9769 39.7134 11.9769C40.6234 11.9769 41.3234 12.2539 41.8367 12.7846C42.35 13.3385 42.63 14.0769 42.6067 14.8385C42.63 15.6231 42.35 16.3846 41.79 16.9615C41.2534 17.5154 40.46 17.8154 39.6667 17.7692ZM37.0534 37.8V20.0308C37.0534 19.8 37.1467 19.7077 37.3567 19.7077H41.9767C42.1867 19.7077 42.28 19.8231 42.28 20.0308V37.8C42.28 38.0539 42.1867 38.1692 41.9767 38.1692H37.4034C37.17 38.1692 37.0534 38.0308 37.0534 37.8Z" fill="#FF9A00"/>
</svg>
