<svg width="52" height="51" viewBox="0 0 52 51" fill="none" xmlns="http://www.w3.org/2000/svg">
<path d="M0 4.87261C0 2.18154 2.22432 0 4.96815 0H47.0318C49.7757 0 52 2.18154 52 4.87261V46.1274C52 48.8185 49.7757 51 47.0318 51H4.96815C2.22432 51 0 48.8185 0 46.1274V4.87261Z" fill="#F7DF1E"/>
<path d="M13.6727 42.6193L17.652 40.2573C18.4198 41.5923 19.1181 42.7219 20.7933 42.7219C22.399 42.7219 23.4116 42.1059 23.4116 39.7097V23.414H28.2982V39.7774C28.2982 44.7413 25.3313 47.0009 21.0027 47.0009C17.0936 47.0009 14.8245 45.0153 13.6725 42.6189M30.9524 42.1057L34.9312 39.8463C35.9787 41.524 37.3401 42.7563 39.7483 42.7563C41.7733 42.7563 43.0643 41.7634 43.0643 40.394C43.0643 38.7508 41.7379 38.1687 39.5039 37.2105L38.2826 36.6965C34.7569 35.2249 32.4183 33.3761 32.4183 29.4734C32.4183 25.8787 35.2107 23.1399 39.574 23.1399C42.6806 23.1399 44.9146 24.2013 46.5201 26.9742L42.7152 29.3708C41.8773 27.8988 40.9701 27.3169 39.5738 27.3169C38.1426 27.3169 37.235 28.207 37.235 29.3708C37.235 30.8086 38.1426 31.3909 40.2368 32.281L41.4584 32.7944C45.6123 34.5405 47.9509 36.3206 47.9509 40.3257C47.9509 44.6395 44.4953 47.0015 39.8529 47.0015C35.3153 47.0015 32.3832 44.879 30.9522 42.1059" fill="black"/>
</svg>
