<svg width="45" height="50" viewBox="0 0 45 50" fill="none" xmlns="http://www.w3.org/2000/svg">
<path fill-rule="evenodd" clip-rule="evenodd" d="M22.4914 49.7123C21.7929 49.7123 21.1409 49.5296 20.5356 49.2099L14.3423 45.6019C13.411 45.0996 13.8766 44.9169 14.156 44.8255C15.4133 44.4145 15.6462 44.3232 16.95 43.5924C17.0897 43.5011 17.276 43.5468 17.4157 43.6381L22.1654 46.424C22.3517 46.5153 22.5845 46.5153 22.7242 46.424L41.304 35.8741C41.4903 35.7828 41.5834 35.6001 41.5834 35.3718V14.3177C41.5834 14.0893 41.4903 13.9067 41.304 13.8153L22.7242 3.31111C22.5379 3.21977 22.3051 3.21977 22.1654 3.31111L3.58558 13.8153C3.39931 13.9067 3.30618 14.135 3.30618 14.3177V35.3718C3.30618 35.5544 3.39931 35.7828 3.58558 35.8741L8.66126 38.7514C11.4087 40.1215 13.1316 38.523 13.1316 36.9246V16.1445C13.1316 15.8705 13.3644 15.5965 13.6904 15.5965H16.0653C16.3446 15.5965 16.624 15.8248 16.624 16.1445V36.9246C16.624 40.5325 14.6217 42.6334 11.1293 42.6334C10.0582 42.6334 9.22006 42.6334 6.84519 41.4916L1.95577 38.7514C0.745055 38.0663 0 36.7875 0 35.4174V14.3634C0 12.9932 0.745055 11.7145 1.95577 11.0294L20.5356 0.479539C21.6997 -0.159846 23.283 -0.159846 24.4471 0.479539L43.0269 11.0294C44.2376 11.7145 44.9827 12.9932 44.9827 14.3634V35.4174C44.9827 36.7875 44.2376 38.0663 43.0269 38.7514L24.4471 49.3012C23.8418 49.5753 23.1433 49.7123 22.4914 49.7123ZM28.219 35.2347C20.0699 35.2347 18.3935 31.5811 18.3935 28.4755C18.3935 28.2015 18.6264 27.9275 18.9523 27.9275H21.3738C21.6532 27.9275 21.886 28.1102 21.886 28.3842C22.2585 30.8047 23.3295 31.9921 28.2655 31.9921C32.1771 31.9921 33.8534 31.1244 33.8534 29.0692C33.8534 27.8818 33.3878 27.0141 27.2876 26.4204C22.212 25.918 19.0455 24.8219 19.0455 20.8486C19.0455 17.1493 22.212 14.9571 27.5205 14.9571C33.4809 14.9571 36.4146 16.9666 36.7871 21.3509C36.7871 21.4879 36.7405 21.625 36.6474 21.762C36.5543 21.8533 36.4146 21.9446 36.2749 21.9446H33.8534C33.6206 21.9446 33.3878 21.762 33.3412 21.5336C32.7824 19.0217 31.3389 18.1997 27.5205 18.1997C23.2364 18.1997 22.7242 19.6611 22.7242 20.7572C22.7242 22.0817 23.3295 22.4927 29.1037 23.2234C34.8313 23.9541 37.5321 25.0046 37.5321 28.9322C37.4856 32.9512 34.1328 35.2347 28.219 35.2347Z" fill="#539E43"/>
</svg>
