<svg width="55" height="54" viewBox="0 0 55 54" fill="none" xmlns="http://www.w3.org/2000/svg">
<path d="M9.73958 0H45.2604C50.6458 0 55 4.38462 55 9.80769V44.1923C55 49.6154 50.6458 54 45.2604 54H9.73958C4.35417 54 0 49.6154 0 44.1923V9.80769C0 4.38462 4.35417 0 9.73958 0Z" fill="#001E36"/>
<path d="M12.3749 37.8692V14.1231C12.3749 13.9615 12.4437 13.8692 12.6041 13.8692C12.9937 13.8692 13.3604 13.8692 13.8874 13.8462C14.4374 13.8231 15.0104 13.8231 15.6291 13.8C16.2479 13.7769 16.9124 13.7769 17.6229 13.7539C18.3333 13.7308 19.0208 13.7308 19.7083 13.7308C21.5874 13.7308 23.1458 13.9615 24.4291 14.4462C25.5749 14.8385 26.6291 15.4846 27.4999 16.3385C28.2333 17.0769 28.8062 17.9769 29.1729 18.9692C29.5166 19.9385 29.6999 20.9308 29.6999 21.9692C29.6999 23.9539 29.2416 25.5923 28.3249 26.8846C27.4083 28.1769 26.1249 29.1462 24.6354 29.7C23.077 30.2769 21.3583 30.4846 19.4791 30.4846C18.9291 30.4846 18.5624 30.4846 18.3333 30.4615C18.1041 30.4385 17.7833 30.4385 17.3479 30.4385V37.8462C17.3708 38.0077 17.2562 38.1462 17.0958 38.1692C17.0729 38.1692 17.0499 38.1692 17.0041 38.1692H12.6499C12.4666 38.1692 12.3749 38.0769 12.3749 37.8692ZM17.3708 18.3231V26.0769C17.6916 26.1 17.9895 26.1231 18.2645 26.1231H19.4791C20.3729 26.1231 21.2666 25.9846 22.1145 25.7077C22.8479 25.5 23.4895 25.0615 23.9937 24.4846C24.4749 23.9077 24.7041 23.1231 24.7041 22.1077C24.727 21.3923 24.5437 20.6769 24.177 20.0539C23.7874 19.4539 23.2374 18.9923 22.5729 18.7385C21.7249 18.3923 20.8083 18.2539 19.8687 18.2769C19.2729 18.2769 18.7458 18.2769 18.3104 18.3C17.852 18.2769 17.5312 18.3 17.3708 18.3231Z" fill="#31A8FF"/>
<path d="M43.9999 24.6692C43.3124 24.3 42.5791 24.0462 41.7999 23.8846C40.952 23.7 40.1041 23.5846 39.2332 23.5846C38.7749 23.5616 38.2937 23.6308 37.8582 23.7462C37.5603 23.8154 37.3082 23.9769 37.1478 24.2077C37.0332 24.3923 36.9645 24.6231 36.9645 24.8308C36.9645 25.0385 37.0562 25.2462 37.1937 25.4308C37.3999 25.6846 37.6749 25.8923 37.9728 26.0539C38.4999 26.3308 39.0499 26.5846 39.5999 26.8154C40.8374 27.2308 42.0291 27.8077 43.1291 28.5C43.8853 28.9846 44.5041 29.6308 44.9395 30.4154C45.3062 31.1539 45.4895 31.9616 45.4666 32.7923C45.4895 33.8769 45.1687 34.9616 44.5728 35.8616C43.9312 36.7846 43.0374 37.5 42.0062 37.9154C40.8832 38.4 39.5082 38.6539 37.8582 38.6539C36.8041 38.6539 35.7728 38.5616 34.7416 38.3539C33.9395 38.2154 33.1374 37.9616 32.4041 37.6154C32.2436 37.5231 32.1291 37.3616 32.152 37.1769V33.1616C32.152 33.0923 32.1749 33 32.2437 32.9539C32.3124 32.9077 32.3812 32.9308 32.4499 32.9769C33.3437 33.5077 34.2832 33.8769 35.2916 34.1077C36.1624 34.3385 37.0791 34.4539 37.9957 34.4539C38.8666 34.4539 39.4853 34.3385 39.8978 34.1308C40.2645 33.9692 40.5166 33.5769 40.5166 33.1616C40.5166 32.8385 40.3332 32.5385 39.9666 32.2385C39.5999 31.9385 38.8437 31.5923 37.7207 31.1539C36.552 30.7385 35.4749 30.1846 34.4666 29.4923C33.7562 28.9846 33.1603 28.3154 32.7249 27.5308C32.3582 26.7923 32.1749 25.9846 32.1978 25.1769C32.1978 24.1846 32.4728 23.2385 32.977 22.3846C33.5499 21.4616 34.3978 20.7231 35.3832 20.2616C36.4603 19.7077 37.8124 19.4539 39.4395 19.4539C40.3791 19.4539 41.3416 19.5231 42.2812 19.6616C42.9687 19.7539 43.6332 19.9385 44.252 20.1923C44.3437 20.2154 44.4353 20.3077 44.4812 20.4C44.5041 20.4923 44.527 20.5846 44.527 20.6769V24.4385C44.527 24.5308 44.4812 24.6231 44.4124 24.6692C44.2062 24.7154 44.0916 24.7154 43.9999 24.6692Z" fill="#31A8FF"/>
</svg>
