<svg width="65" height="56" viewBox="0 0 65 56" fill="none" xmlns="http://www.w3.org/2000/svg">
<path d="M37.9606 27.8624C37.9606 24.7824 35.3854 22.2852 32.2084 22.2852C29.0318 22.2852 26.4562 24.7824 26.4562 27.8624C26.4562 30.9428 29.0318 33.4398 32.2084 33.4398C35.3854 33.4398 37.9606 30.9428 37.9606 27.8624Z" fill="#53C1DE"/>
<path fill-rule="evenodd" clip-rule="evenodd" d="M50.8902 17.5079C52.1049 12.7219 53.6318 3.84672 48.2491 0.837761C42.8916 -2.15808 35.9197 3.5825 32.2383 7.02827C28.5676 3.61683 21.3999 -2.0992 16.0218 0.919312C10.6664 3.9252 12.3179 12.6532 13.5595 17.4692C8.56382 18.8449 0 21.8081 0 27.8622C0 33.8992 8.55491 37.123 13.5211 38.4975C12.2748 43.3401 10.706 51.9434 16.0683 54.9427C21.4665 57.9606 28.6118 52.3806 32.3274 48.8971C36.0324 52.3632 42.9373 57.9797 48.2959 54.9721C53.6713 51.955 52.2713 43.1988 51.0296 38.3549C55.8436 36.9774 64.4169 33.8238 64.4169 27.8622C64.4169 21.8663 55.8071 18.8791 50.8902 17.5079ZM50.28 35.7879C49.4647 33.2855 48.3642 30.6244 47.0181 27.8755C48.303 25.1915 49.3607 22.5648 50.1533 20.0785C53.7578 21.0918 61.6652 23.4076 61.6652 27.8622C61.6652 32.3587 54.0771 34.6964 50.28 35.7879ZM46.917 52.6629C42.9188 54.9068 36.9798 49.5357 34.2436 46.9833C36.0589 45.0583 37.8728 42.8205 39.6432 40.3355C42.7576 40.0677 45.6995 39.6297 48.3676 39.0317C49.2416 42.458 50.9327 50.409 46.917 52.6629ZM17.4433 52.631C13.4447 50.3955 15.2723 42.7183 16.1892 39.1511C18.8276 39.7171 21.7484 40.1242 24.8701 40.3696C26.6521 42.8012 28.5186 45.0362 30.3996 46.9936C28.0757 49.1733 21.4605 54.8767 17.4433 52.631ZM2.75165 27.8622C2.75165 23.349 10.6118 21.0499 14.2985 20.0392C15.1047 22.5813 16.1621 25.2394 17.4381 27.9273C16.1456 30.6551 15.0731 33.3553 14.2594 35.9274C10.7441 34.9517 2.75165 32.3783 2.75165 27.8622ZM17.4005 3.22844C21.4154 0.975183 27.6449 6.46279 30.3101 8.93275C28.4388 10.8812 26.5894 13.0994 24.8226 15.517C21.7931 15.7892 18.8929 16.2264 16.2268 16.8122C15.2265 12.9278 13.39 5.47928 17.4005 3.22844ZM41.6118 18.417C43.6671 18.6684 45.6364 19.003 47.4853 19.4122C46.9303 21.1373 46.2384 22.9412 45.4236 24.7904C44.2424 22.6174 42.9744 20.488 41.6118 18.417ZM32.2391 10.8394C33.5084 12.1726 34.7795 13.6613 36.0301 15.2765C33.4936 15.1601 30.953 15.1597 28.4164 15.2747C29.6681 13.6746 30.9502 12.1881 32.2391 10.8394ZM19.0169 24.7885C18.2156 22.9457 17.5299 21.1339 16.97 19.3841C18.808 18.9854 20.768 18.6594 22.81 18.4121C21.4435 20.4786 20.1777 22.6071 19.0169 24.7885ZM22.8686 37.5029C20.7592 37.2746 18.7695 36.9652 16.9321 36.5774C17.5009 34.7969 18.2016 32.946 19.0201 31.0635C20.1968 33.2677 21.482 35.4168 22.8686 37.5029ZM32.3154 45.0736C31.0111 43.709 29.7101 42.1997 28.4396 40.5764C30.9905 40.6735 33.5464 40.6737 36.0971 40.5633C34.8427 42.2163 33.576 43.7277 32.3154 45.0736ZM45.4498 30.9678C46.3108 32.8706 47.0366 34.7115 47.6131 36.4619C45.7452 36.8752 43.7288 37.2081 41.6041 37.4552C42.9768 35.3449 44.2649 33.1824 45.4498 30.9678ZM38.1075 37.7786C34.2056 38.0489 30.2794 38.0459 26.3761 37.8007C24.1583 34.6595 22.1839 31.356 20.4796 27.9264C22.1757 24.504 24.1357 21.2069 26.3431 18.0707C30.2491 17.7844 34.1792 17.7836 38.0852 18.0724C40.2737 21.2084 42.2306 24.4969 43.966 27.8884C42.2512 31.3092 40.2809 34.6129 38.1075 37.7786ZM46.8747 3.14912C50.8906 5.395 49.1031 13.3714 48.2257 16.8399C45.5533 16.2419 42.6511 15.797 39.6127 15.5204C37.8426 13.0767 36.0086 10.8546 34.1676 8.93138C36.8669 6.40821 42.8976 0.925217 46.8747 3.14912Z" fill="#53C1DE"/>
</svg>
