<svg width="68" height="48" viewBox="0 0 68 48" fill="none" xmlns="http://www.w3.org/2000/svg">
<path fill-rule="evenodd" clip-rule="evenodd" d="M27.917 5.18442C30.08 2.90346 33.0932 1.48701 36.4243 1.48701C40.8523 1.48701 44.7167 3.98712 46.7738 7.69865C48.6145 6.86628 50.6085 6.43725 52.6243 6.43971C60.6113 6.43971 67.0855 13.0517 67.0855 21.2093C67.0855 29.3669 60.6113 35.9789 52.6243 35.9789C51.648 35.9789 50.6955 35.8801 49.7748 35.6922C47.9631 38.9627 44.5088 41.1732 40.5462 41.1732C38.8874 41.1732 37.318 40.7868 35.9218 40.0953C34.0845 44.4703 29.805 47.5361 24.818 47.5361C19.6249 47.5361 15.1978 44.2086 13.4993 39.5435C12.7425 39.7051 11.9712 39.7864 11.1977 39.7864C5.01336 39.7871 3.13412e-05 34.659 3.13412e-05 28.3331C-0.00462616 26.3282 0.509893 24.3574 1.49225 22.6166C2.47465 20.8758 3.89056 19.4261 5.59885 18.4121C4.89014 16.7589 4.5255 14.9757 4.52766 13.1735C4.52766 5.89748 10.3613 8.88758e-06 17.5574 8.88758e-06C19.562 -0.00234861 21.5401 0.464333 23.3372 1.36367C25.1342 2.263 26.7017 3.5706 27.917 5.18442Z" fill="#00A1E0"/>
<path fill-rule="evenodd" clip-rule="evenodd" d="M9.71714 24.6519L9.98862 23.8893C10.0319 23.7585 10.1295 23.8015 10.1691 23.8261C10.2447 23.8716 10.299 23.9122 10.3966 23.9703C11.1963 24.4821 11.9373 24.4873 12.1684 24.4873C12.7671 24.4873 13.1384 24.1664 13.1384 23.7332V23.711C13.1384 23.2402 12.5661 23.0618 11.905 22.8568L11.7583 22.8093C10.8507 22.548 9.88002 22.1697 9.88002 21.0067V20.9828C9.88002 19.8792 10.7597 19.1087 12.0188 19.1087L12.1567 19.1074C12.8963 19.1074 13.6109 19.325 14.1289 19.6431C14.1758 19.6725 14.2213 19.7275 14.1949 19.8003L13.9161 20.5632C13.8669 20.693 13.7326 20.6069 13.7326 20.6069C13.1922 20.322 12.5942 20.1665 11.985 20.1532C11.4509 20.1532 11.1075 20.4399 11.1075 20.829V20.8536C11.1075 21.3074 11.6959 21.5014 12.3783 21.7262L12.4956 21.7635C13.4003 22.0532 14.3658 22.4543 14.3658 23.5572V23.5801C14.3658 24.7725 13.5103 25.5129 12.1347 25.5129C11.4589 25.5129 10.8126 25.4074 10.1288 25.0397C9.99963 24.9639 9.87195 24.8986 9.74576 24.8057C9.73256 24.7865 9.67458 24.7633 9.7164 24.6519H9.71714ZM29.8623 24.6519L30.1344 23.8893C30.1742 23.7646 30.2893 23.8104 30.3143 23.8261C30.3892 23.8729 30.4449 23.9122 30.5417 23.9703C31.343 24.4821 32.0824 24.4873 32.3156 24.4873C32.9123 24.4873 33.2843 24.1664 33.2843 23.7332V23.711C33.2843 23.2402 32.7125 23.0618 32.0517 22.8568L31.9049 22.8093C30.9957 22.548 30.025 22.1697 30.025 21.0067V20.9828C30.025 19.8792 30.9056 19.1087 32.1644 19.1087L32.3018 19.1074C33.0413 19.1074 33.7568 19.325 34.2755 19.6431C34.3211 19.6725 34.367 19.7275 34.3413 19.8003C34.3157 19.8679 34.0868 20.4918 34.0625 20.5632C34.0119 20.693 33.8793 20.6069 33.8793 20.6069C33.3386 20.322 32.7402 20.1665 32.1307 20.1532C31.5968 20.1532 31.2532 20.4399 31.2532 20.829V20.8536C31.2532 21.3074 31.8411 21.5014 32.5242 21.7262L32.6413 21.7635C33.5462 22.0532 34.5111 22.4543 34.5111 23.5572V23.5801C34.5111 24.7725 33.6562 25.5129 32.2805 25.5129C31.6042 25.5129 30.9575 25.4074 30.2744 25.0397C30.1455 24.9639 30.0179 24.8986 29.8907 24.8057C29.8775 24.7865 29.8198 24.7633 29.8623 24.6519ZM44.7636 21.0655C44.8767 21.4485 44.9324 21.8697 44.9324 22.3146C44.9324 22.7601 44.8767 23.18 44.7636 23.563C44.6604 23.9327 44.4828 24.2768 44.2425 24.574C44.0019 24.8627 43.6998 25.0927 43.3593 25.2471C43.007 25.4104 42.5932 25.4921 42.1281 25.4921C41.663 25.4921 41.2476 25.4104 40.8969 25.2471C40.5564 25.0927 40.2543 24.8627 40.0137 24.574C39.7737 24.2768 39.5962 23.9331 39.4919 23.5641C39.3765 23.1578 39.3198 22.7372 39.3231 22.3146C39.3231 21.8691 39.3798 21.4485 39.4919 21.0655C39.605 20.679 39.7805 20.3387 40.013 20.0552C40.2543 19.7654 40.5564 19.5334 40.8969 19.3763C41.2486 19.2099 41.6617 19.1258 42.1281 19.1258C42.5949 19.1258 43.008 19.2099 43.3593 19.3763C43.71 19.542 44.008 19.7699 44.2425 20.0552C44.4761 20.3387 44.6519 20.679 44.7636 21.0655ZM43.6161 22.3146C43.6161 21.6408 43.493 21.1112 43.2479 20.7399C43.0056 20.3715 42.6387 20.1932 42.1281 20.1932C41.6175 20.1932 41.2536 20.3715 41.0144 20.7399C40.7744 21.1112 40.6519 21.6408 40.6519 22.3146C40.6519 22.9877 40.7744 23.521 41.0157 23.8951C41.2536 24.2679 41.6175 24.4486 42.1281 24.4486C42.6387 24.4486 43.0056 24.2672 43.2479 23.8951C43.4913 23.521 43.6161 22.9877 43.6161 22.3146ZM54.1974 24.2679L54.4793 25.0568C54.5157 25.1535 54.433 25.1959 54.433 25.1959C53.998 25.3667 53.3942 25.4883 52.8063 25.4883C51.81 25.4883 51.0469 25.1979 50.5379 24.6246C50.0317 24.0527 49.7732 23.275 49.7732 22.3102C49.7732 21.8639 49.8369 21.4413 49.9618 21.0586C50.0867 20.6725 50.2737 20.3322 50.52 20.0483C50.7762 19.7569 51.0918 19.5252 51.4455 19.3698C51.8123 19.2041 52.2437 19.1207 52.7249 19.1207C53.0499 19.1207 53.3392 19.1409 53.5869 19.1781C53.8518 19.2194 54.2049 19.3161 54.3537 19.3749C54.3807 19.3851 54.4563 19.4224 54.4256 19.5122C54.3169 19.8218 54.243 20.0241 54.1424 20.3063C54.0986 20.4265 54.0088 20.3866 54.0088 20.3866C53.6311 20.266 53.2686 20.2113 52.7955 20.2113C52.2268 20.2113 51.7998 20.4026 51.5211 20.7778C51.2393 21.156 51.0813 21.6514 51.0793 22.3102C51.0769 23.0328 51.2561 23.5685 51.573 23.8996C51.8893 24.2303 52.3311 24.3974 52.8869 24.3974C53.1124 24.3974 53.325 24.3824 53.5167 24.352C53.7057 24.3215 53.8836 24.2621 54.0506 24.1962C54.0506 24.1962 54.1586 24.1552 54.1974 24.2679ZM60.0743 20.8461C60.3244 21.7331 60.1938 22.4988 60.1894 22.5411C60.18 22.6423 60.0774 22.6436 60.0774 22.6436L56.1894 22.6405C56.2137 23.2385 56.3551 23.6621 56.6413 23.9495C56.9224 24.231 57.3686 24.4114 57.9724 24.4121C58.8954 24.4145 59.2893 24.2266 59.5688 24.1217C59.5688 24.1217 59.6751 24.0831 59.7156 24.19L59.9687 24.9113C60.02 25.0322 59.9788 25.0746 59.9356 25.0992C59.6919 25.2352 59.1013 25.489 57.9774 25.4921C57.4324 25.4945 56.9575 25.4156 56.5667 25.2618C56.1951 25.1224 55.8603 24.8979 55.5886 24.6062C55.3287 24.3195 55.136 23.9775 55.0243 23.6054C54.9038 23.1978 54.8448 22.7741 54.8488 22.3488C54.8488 21.9032 54.9055 21.4799 55.0193 21.0928C55.133 20.703 55.3098 20.3589 55.5451 20.0702C55.7894 19.775 56.0955 19.5392 56.4411 19.3793C56.7975 19.2092 57.2393 19.1258 57.725 19.1258C58.1411 19.1258 58.5212 19.2167 58.8374 19.3547C59.0811 19.4603 59.3261 19.651 59.5769 19.9243C59.7355 20.0968 59.9768 20.474 60.0743 20.8461ZM56.2079 21.6685H58.9812C58.9525 21.3074 58.883 20.9835 58.723 20.7399C58.4793 20.3715 58.1432 20.1689 57.6332 20.1689C57.1226 20.1689 56.7601 20.3715 56.5205 20.7399C56.3632 20.9835 56.2619 21.294 56.2069 21.6685H56.2079ZM28.9325 20.8461C29.1819 21.7331 29.0537 22.4988 29.0493 22.5411C29.0392 22.6423 28.9362 22.6436 28.9362 22.6436L25.0477 22.6405C25.0726 23.2385 25.2135 23.6621 25.5004 23.9495C25.7814 24.231 26.2268 24.4114 26.8306 24.4121C27.7536 24.4145 28.1492 24.2266 28.428 24.1217C28.428 24.1217 28.5343 24.0831 28.5738 24.19L28.8276 24.9113C28.8792 25.0322 28.838 25.0746 28.7955 25.0992C28.5505 25.2352 27.9592 25.489 26.8365 25.4921C26.2906 25.4945 25.8159 25.4156 25.4256 25.2618C25.0538 25.1224 24.7189 24.8979 24.4468 24.6062C24.1879 24.3192 23.9956 23.9775 23.8841 23.6054C23.7629 23.1981 23.7032 22.7745 23.7073 22.3488C23.7073 21.9032 23.7645 21.4799 23.8775 21.0928C23.9832 20.7194 24.1624 20.3715 24.4043 20.0702C24.6483 19.7753 24.954 19.5396 25.2994 19.3793C25.6574 19.2092 26.0991 19.1258 26.5833 19.1258C26.9661 19.1251 27.3449 19.203 27.6969 19.3547C27.9406 19.4603 28.1856 19.651 28.4361 19.9243C28.5944 20.0968 28.8357 20.474 28.9325 20.8461ZM25.0653 21.6685H27.84C27.8107 21.3074 27.7412 20.9835 27.5819 20.7399C27.3399 20.3715 27.0024 20.1689 26.4924 20.1689C25.9817 20.1689 25.6185 20.3715 25.3801 20.7399C25.2216 20.9835 25.1211 21.294 25.0646 21.6685H25.0653ZM18.2082 21.4806C18.2082 21.4806 18.5149 21.5079 18.8495 21.5571V21.3907C18.8495 20.8656 18.7416 20.6182 18.5296 20.4525C18.3124 20.2848 17.9881 20.1976 17.5684 20.1976C17.5684 20.1976 16.622 20.186 15.8736 20.5974C15.8391 20.6182 15.8105 20.6302 15.8105 20.6302C15.8105 20.6302 15.7166 20.6633 15.6828 20.5663L15.4077 19.8174C15.3651 19.7097 15.4422 19.6609 15.4422 19.6609C15.7921 19.3845 16.6403 19.2174 16.6403 19.2174C16.9846 19.1562 17.3333 19.1234 17.6829 19.12C18.4591 19.12 19.06 19.3028 19.4687 19.6646C19.8781 20.0278 20.0865 20.6131 20.0865 21.4017L20.0886 25.0025C20.0886 25.0025 20.0967 25.1067 19.9991 25.1303C19.9991 25.1303 19.8561 25.1706 19.7277 25.201C19.5978 25.2314 19.1297 25.3281 18.7475 25.3934C18.3571 25.4596 17.962 25.4928 17.5662 25.4928C17.1884 25.4928 16.8421 25.4572 16.5368 25.3865C16.2524 25.3264 15.9831 25.2082 15.7452 25.039C15.5284 24.8798 15.3544 24.668 15.2389 24.4234C15.1193 24.176 15.0592 23.8736 15.0592 23.5244C15.0592 23.1821 15.1303 22.877 15.2676 22.617C15.4055 22.3583 15.5948 22.1393 15.8325 21.9678C16.0781 21.7929 16.3527 21.6637 16.6432 21.5868C16.9463 21.5052 17.2683 21.4628 17.6014 21.4628C17.8458 21.4628 18.0497 21.4679 18.2082 21.4806ZM16.6608 24.2464C16.6586 24.2457 17.0093 24.5252 17.801 24.476C18.3571 24.4418 18.8502 24.3349 18.8502 24.3349V22.5449C18.8502 22.5449 18.3528 22.4625 17.7944 22.4543C17.0028 22.4448 16.6653 22.7396 16.6674 22.7386C16.4341 22.9067 16.3204 23.1554 16.3204 23.5002C16.3204 23.7206 16.3593 23.8931 16.4378 24.0134C16.487 24.0926 16.5082 24.1224 16.6608 24.2464ZM49.5707 19.4521C49.5342 19.5597 49.3455 20.0989 49.2774 20.2779C49.2524 20.3463 49.2112 20.3931 49.1356 20.3849C49.1356 20.3849 48.9125 20.3329 48.7087 20.3329C48.5686 20.3329 48.3681 20.3507 48.1876 20.4071C48.0067 20.4634 47.842 20.5639 47.708 20.6992C47.5656 20.8379 47.4505 21.0333 47.3668 21.2783C47.2817 21.525 47.2375 21.9172 47.2375 22.3108V25.2434C47.2379 25.2591 47.2348 25.2745 47.2287 25.2891C47.223 25.3035 47.2142 25.3168 47.2034 25.3278C47.1926 25.339 47.1795 25.3479 47.1653 25.3537C47.1511 25.3599 47.1356 25.3629 47.1201 25.3629H46.0998C46.0839 25.3629 46.0684 25.3602 46.0539 25.3544C46.0394 25.3486 46.0262 25.3397 46.0151 25.3288C46.004 25.3175 45.9952 25.3045 45.9888 25.2898C45.9827 25.2755 45.9797 25.2598 45.9793 25.244V19.3725C45.9793 19.3066 46.0269 19.2536 46.0924 19.2536H47.088C47.1538 19.2536 47.2011 19.3066 47.2011 19.3725V19.8525C47.3499 19.6503 47.6169 19.4723 47.8582 19.3623C48.1005 19.2509 48.3712 19.1692 48.8606 19.1989C49.115 19.2143 49.4461 19.285 49.5129 19.311C49.5258 19.3161 49.5376 19.324 49.5477 19.3342C49.5578 19.3441 49.5656 19.3561 49.571 19.3691C49.5764 19.3824 49.5791 19.3964 49.5791 19.4108C49.5791 19.4248 49.5764 19.4388 49.5707 19.4521ZM39.9813 16.7314C40.0086 16.7425 40.0825 16.7789 40.0532 16.868L39.7548 17.6946C39.7298 17.7571 39.7136 17.7943 39.5867 17.7557C39.4187 17.7021 39.2438 17.6748 39.068 17.6737C38.9138 17.6737 38.7744 17.6939 38.6512 17.7356C38.528 17.7756 38.4159 17.8453 38.3255 17.9392C38.2047 18.0571 38.1115 18.2006 38.0525 18.3595C37.9094 18.7753 37.8543 19.2188 37.8469 19.2471H39.0899C39.1949 19.2471 39.228 19.296 39.2175 19.3742L39.0724 20.1925C39.0488 20.3114 38.9424 20.307 38.9424 20.307H37.6613L36.7862 25.325C36.7109 25.775 36.5965 26.2175 36.4443 26.6473C36.3069 27.0105 36.1655 27.2756 35.938 27.5288C35.744 27.7553 35.4969 27.9295 35.2198 28.0355C34.9505 28.1356 34.6231 28.1868 34.2657 28.1868C34.0956 28.1868 33.9123 28.1831 33.6957 28.1311C33.5752 28.1031 33.4564 28.0679 33.3399 28.0255C33.2924 28.0085 33.2532 27.947 33.2812 27.868C33.3075 27.7901 33.5381 27.1523 33.5688 27.0682C33.6086 26.9671 33.7098 27.006 33.7098 27.006C33.7787 27.0354 33.827 27.0549 33.9188 27.0733C34.0119 27.0921 34.1368 27.1085 34.2313 27.1085C34.4007 27.1085 34.5549 27.0877 34.6893 27.0416C34.8506 26.9889 34.9461 26.8929 35.0443 26.7651C35.1469 26.6309 35.2306 26.4488 35.3167 26.2045C35.4024 25.9571 35.4807 25.6301 35.5482 25.2345L36.42 20.3076H35.5617C35.4588 20.3076 35.4237 20.2588 35.4355 20.1799L35.5793 19.3616C35.6019 19.2427 35.7112 19.2471 35.7112 19.2471H36.5924L36.64 18.9813C36.7723 18.191 37.0342 17.59 37.4213 17.1954C37.8111 16.7982 38.365 16.5977 39.068 16.5977C39.2688 16.5977 39.4463 16.611 39.5969 16.6385C39.7443 16.6667 39.8567 16.6927 39.9813 16.7314ZM22.6104 25.2434C22.6104 25.31 22.5649 25.3629 22.4989 25.3629H21.468C21.402 25.3629 21.3572 25.3093 21.3572 25.244V16.8413C21.3572 16.7767 21.4027 16.7232 21.4673 16.7232H22.4989C22.5649 16.7232 22.6104 16.7767 22.6104 16.842V25.2434Z" fill="white"/>
</svg>
