<svg width="48" height="57" viewBox="0 0 48 57" fill="none" xmlns="http://www.w3.org/2000/svg">
<path d="M23.5564 0C36.5663 0 47.1128 2.55551 47.1128 5.7079C47.1128 5.79904 47.1037 5.88962 47.0863 5.97971H47.1128V50.7369H47.1102C46.9276 54.1477 36.4523 56.8978 23.5564 56.8978C10.6606 56.8978 0.185259 54.1477 0.00265434 50.7369H0V5.97971H0.0265434C0.00910946 5.88962 0 5.79904 0 5.7079C0 2.55551 10.5466 0 23.5564 0Z" fill="#33AADD"/>
<path d="M33.8215 41.6767V26.3285H37.6224V38.5782H42.8073V41.6767H33.8215Z" fill="white"/>
<path d="M28.3018 45.2504C27.1657 45.2504 26.2499 45.1334 25.5544 44.8993C24.8589 44.6651 24.3115 44.2795 23.9122 43.7425C23.5128 43.2123 23.1857 42.4961 22.9309 41.5941L24.7694 41.119H25.8229C25.94 41.5253 26.1053 41.8248 26.3187 42.0176C26.5322 42.2173 26.8317 42.3481 27.2173 42.4101C27.6029 42.472 28.109 42.503 28.7356 42.503C29.0248 42.503 29.3106 42.472 29.5929 42.4101C29.8752 42.3481 30.1196 42.2827 30.3262 42.2138V44.796C30.1403 44.8855 29.8786 44.9819 29.5412 45.0852C29.2038 45.1953 28.7907 45.2504 28.3018 45.2504ZM23.9638 41.842C22.4489 41.8695 21.1544 41.5631 20.0802 40.9228C19.013 40.2755 18.2004 39.3563 17.6427 38.165C17.0918 36.9669 16.8302 35.5553 16.8577 33.9303C16.8922 32.1125 17.2261 30.6424 17.8596 29.52C18.5 28.3907 19.371 27.561 20.4727 27.0308C21.5744 26.4937 22.8345 26.2045 24.253 26.1632C25.7059 26.1219 26.9522 26.418 27.9919 27.0515C29.0317 27.6781 29.8235 28.5835 30.3675 29.7679C30.9184 30.9522 31.18 32.3535 31.1525 33.9716C31.1181 35.7894 30.7944 37.2733 30.1816 38.4232C29.5688 39.5732 28.7287 40.4235 27.6614 40.9744C26.5941 41.5253 25.3616 41.8145 23.9638 41.842ZM24.0258 39.0739C25.0173 39.0739 25.7988 38.6746 26.3704 37.8758C26.9419 37.0702 27.2276 35.7344 27.2276 33.8683C27.2276 32.9043 27.1175 32.0574 26.8971 31.3275C26.6768 30.5976 26.3428 30.0295 25.8952 29.6233C25.4477 29.217 24.8796 29.0139 24.191 29.0139C23.5644 29.0139 22.9929 29.1688 22.4765 29.4787C21.96 29.7885 21.5469 30.3084 21.237 31.0383C20.9341 31.7682 20.7826 32.7666 20.7826 34.0336C20.7826 35.0114 20.9031 35.879 21.1441 36.6364C21.3851 37.3938 21.7431 37.9894 22.2183 38.4232C22.7003 38.857 23.3028 39.0739 24.0258 39.0739Z" fill="white"/>
<path d="M9.61465 41.842C8.88476 41.842 8.18586 41.7869 7.51794 41.6767C6.85691 41.5735 6.28195 41.4495 5.79307 41.3049C5.30418 41.1534 4.9599 41.0157 4.76021 40.8918L5.23532 37.8965C5.4901 38.0411 5.83438 38.1891 6.26818 38.3406C6.70198 38.4921 7.18054 38.6229 7.70386 38.7331C8.23406 38.8364 8.7677 38.888 9.30479 38.888C10.0278 38.888 10.5511 38.7847 10.8747 38.5782C11.2052 38.3716 11.3705 38.0411 11.3705 37.5866C11.3705 37.2561 11.2707 36.9772 11.071 36.75C10.8713 36.5159 10.5408 36.2783 10.0794 36.0373C9.62497 35.7963 9.01559 35.4934 8.25127 35.1284C7.60401 34.8186 7.0084 34.4536 6.46443 34.0336C5.92045 33.6067 5.48321 33.0971 5.1527 32.505C4.82218 31.9059 4.65692 31.1967 4.65692 30.3773C4.65692 29.6749 4.78775 29.0621 5.04941 28.5388C5.31795 28.0086 5.69323 27.5679 6.17523 27.2167C6.66411 26.8656 7.24251 26.6039 7.91043 26.4317C8.57834 26.2527 9.31856 26.1632 10.1311 26.1632C11.2879 26.1632 12.2312 26.2699 12.9611 26.4834C13.691 26.6969 14.1937 26.8862 14.4691 27.0515L13.87 29.9228C13.5602 29.6818 13.0816 29.4615 12.4343 29.2618C11.794 29.0552 11.1364 28.9519 10.4616 28.9519C9.97959 28.9519 9.58366 29.007 9.2738 29.1172C8.96394 29.2205 8.73327 29.3685 8.58179 29.5613C8.4303 29.7541 8.35456 29.9779 8.35456 30.2327C8.35456 30.5425 8.44407 30.818 8.6231 31.059C8.80902 31.2931 9.09477 31.5272 9.48037 31.7613C9.87286 31.9885 10.379 32.2433 10.9987 32.5256C11.6597 32.8217 12.2484 33.1247 12.7649 33.4345C13.2882 33.7444 13.7323 34.0818 14.0973 34.4467C14.4622 34.8117 14.7376 35.2283 14.9235 35.6965C15.1163 36.1578 15.2127 36.6915 15.2127 37.2974C15.2127 38.2132 14.9958 39.012 14.562 39.6937C14.1351 40.3753 13.5051 40.9055 12.6719 41.2843C11.8387 41.6561 10.8196 41.842 9.61465 41.842Z" fill="white"/>
</svg>
