<svg width="50" height="50" viewBox="0 0 50 50" fill="none" xmlns="http://www.w3.org/2000/svg">
<path d="M3.86526 0H45.6101C47.7448 0 49.4753 1.73054 49.4753 3.86526V45.6101C49.4753 47.7448 47.7448 49.4753 45.6101 49.4753H3.86526C1.73054 49.4753 0 47.7448 0 45.6101V3.86526C0 1.73054 1.73054 0 3.86526 0Z" fill="#3178C6"/>
<path d="M29.0896 38.7445V44.0824C29.9577 44.5273 30.9846 44.8609 32.1698 45.0833C33.3551 45.3057 34.6044 45.4169 35.9178 45.4169C37.1976 45.4169 38.4136 45.2945 39.5654 45.0499C40.7173 44.8052 41.7275 44.402 42.5954 43.8406C43.4635 43.279 44.1508 42.545 44.6573 41.6386C45.1637 40.7324 45.4169 39.612 45.4169 38.2775C45.4169 37.3101 45.2721 36.462 44.9828 35.7336C44.6935 35.0052 44.276 34.3574 43.7306 33.7904C43.1854 33.2231 42.5314 32.7145 41.7692 32.264C41.0068 31.8137 40.147 31.3883 39.1897 30.988C38.4886 30.6987 37.8599 30.4181 37.3033 30.1456C36.7469 29.8731 36.2738 29.5952 35.8844 29.3115C35.4947 29.028 35.1942 28.7276 34.9828 28.4107C34.7714 28.0937 34.6656 27.7352 34.6656 27.3348C34.6656 26.9678 34.7601 26.6371 34.9493 26.3424C35.1385 26.0477 35.4058 25.7947 35.7508 25.5834C36.0958 25.372 36.5186 25.2081 37.0196 25.0912C37.5203 24.9745 38.0769 24.9161 38.689 24.9161C39.1343 24.9161 39.6045 24.9495 40.0996 25.0162C40.5949 25.0829 41.093 25.1857 41.5939 25.3249C42.0947 25.4638 42.5815 25.6389 43.0546 25.8503C43.5275 26.0616 43.9645 26.3062 44.3651 26.5842V21.5966C43.5526 21.2853 42.665 21.0545 41.7023 20.9044C40.7397 20.7542 39.635 20.6792 38.3885 20.6792C37.1197 20.6792 35.9178 20.8154 34.7826 21.088C33.6473 21.3603 32.6484 21.7856 31.7858 22.3639C30.9233 22.9423 30.2416 23.679 29.7407 24.5742C29.24 25.4694 28.9895 26.5397 28.9895 27.7853C28.9895 29.3755 29.4485 30.7322 30.3669 31.8554C31.2851 32.9785 32.6789 33.9293 34.5487 34.7078C35.2833 35.0081 35.9678 35.3026 36.6021 35.592C37.2366 35.8811 37.7847 36.1812 38.2466 36.4926C38.7085 36.8039 39.073 37.1431 39.3401 37.5101C39.6072 37.8771 39.7407 38.2942 39.7407 38.7613C39.7407 39.1059 39.6572 39.4257 39.4903 39.7204C39.3235 40.015 39.0701 40.2709 38.7307 40.4877C38.3914 40.7045 37.9683 40.874 37.462 40.9964C36.9556 41.1187 36.3629 41.18 35.6839 41.18C34.5265 41.18 33.3802 40.977 32.245 40.571C31.1096 40.1651 30.0579 39.5564 29.0896 38.7445ZM20.1926 25.4609H27.0569V21.0657H7.92383V25.4609H14.7547V45.0303H20.1926V25.4609Z" fill="white"/>
</svg>
