<svg width="56" height="56" viewBox="0 0 56 56" fill="none" xmlns="http://www.w3.org/2000/svg">
<path d="M3.94434 27.7494C3.94434 37.1726 9.42037 45.3153 17.361 49.1747L6.00538 18.0611C4.6441 21.1095 3.94177 24.4109 3.94434 27.7494V27.7494ZM43.8207 26.5481C43.8207 23.606 42.7639 21.5685 41.8575 19.9827C40.6508 18.0217 39.5202 16.3611 39.5202 14.4002C39.5202 12.2118 41.1794 10.1748 43.5172 10.1748C43.6228 10.1748 43.7229 10.188 43.8262 10.1938C39.5904 6.31365 33.9477 3.94458 27.7501 3.94458C19.4334 3.94458 12.1165 8.21162 7.85987 14.6747C8.41839 14.6914 8.9452 14.7028 9.39183 14.7028C11.8818 14.7028 15.7362 14.4006 15.7362 14.4006C17.0195 14.325 17.1708 16.2098 15.8893 16.3616C15.8893 16.3616 14.5992 16.5133 13.1642 16.5885L21.8333 42.3742L27.0434 26.7497L23.334 16.5881C22.0521 16.5129 20.8376 16.3611 20.8376 16.3611C19.5548 16.2859 19.7052 14.3245 20.988 14.4002C20.988 14.4002 24.9194 14.7023 27.2586 14.7023C29.7481 14.7023 33.603 14.4002 33.603 14.4002C34.8871 14.3245 35.038 16.2094 33.7556 16.3611C33.7556 16.3611 32.4633 16.5129 31.031 16.5881L39.6339 42.1785L42.0079 34.2437C43.0375 30.951 43.8207 28.586 43.8207 26.5481V26.5481Z" fill="#33AADD"/>
<path d="M28.1686 29.8316L21.026 50.586C23.2097 51.2296 25.4744 51.5563 27.7509 51.5563C30.5232 51.5563 33.1817 51.0766 35.6563 50.2069C35.5899 50.103 35.5332 49.9932 35.4869 49.8789L28.1686 29.8316ZM48.6396 16.3279C48.742 17.0862 48.8 17.9006 48.8 18.7758C48.8 21.1915 48.3488 23.9071 46.9898 27.3026L39.7182 48.3266C46.7955 44.1995 51.5559 36.532 51.5559 27.7492C51.5622 23.7571 50.559 19.8283 48.6396 16.3279V16.3279Z" fill="#33AADD"/>
<path d="M27.7504 0C12.4492 0 0 12.4482 0 27.7493C0 43.0522 12.4488 55.5005 27.7504 55.5005C43.0511 55.5005 55.5022 43.0527 55.5022 27.7493C55.5017 12.4482 43.0511 0 27.7504 0ZM27.7504 54.228C13.1509 54.228 1.27242 42.3496 1.27242 27.7493C1.27242 13.1504 13.1504 1.27286 27.7504 1.27286C42.3495 1.27286 54.2271 13.1504 54.2271 27.7493C54.2271 42.3496 42.349 54.228 27.7504 54.228Z" fill="#33AADD"/>
</svg>
